<?xml version="1.0" encoding="utf-8"?>
<!-- Generator: Adobe Illustrator 26.0.1, SVG Export Plug-In . SVG Version: 6.00 Build 0)  -->
<svg version="1.1" xmlns="http://www.w3.org/2000/svg" xmlns:xlink="http://www.w3.org/1999/xlink" x="0px" y="0px"
	 viewBox="0 0 841.89 595.28" style="enable-background:new 0 0 841.89 595.28;" xml:space="preserve">
<style type="text/css">
	.st0{fill:none;stroke:#FFFFFF;stroke-width:4;stroke-linecap:round;stroke-linejoin:round;stroke-miterlimit:10;}
	.st1{fill:#FFFFFF;}
	.st2{fill:#814A97;}
	.st3{fill:none;stroke:#FFFFFF;stroke-width:4;stroke-miterlimit:10;}
	.st4{fill:none;stroke:#FFFFFF;stroke-width:3;stroke-linecap:round;stroke-linejoin:round;stroke-miterlimit:10;}
	.st5{fill:none;stroke:#FFFFFF;stroke-width:2;stroke-linecap:round;stroke-linejoin:round;stroke-miterlimit:10;}
	.st6{fill:none;stroke:#FFFFFF;stroke-linecap:round;stroke-linejoin:round;stroke-miterlimit:10;}
	.st7{fill:#FFFFFF;stroke:#FFFFFF;stroke-miterlimit:10;}
	.st8{fill:#009FE3;}
</style>
<g id="Calque_2">
	<rect width="841.89" height="595.28"/>
</g>
<g id="logo">
	<polyline class="st0" points="554.01,433.74 567.91,412.85 576.31,398.27 585.64,379.24 589.68,369.5 592.45,360.11 597.57,341.38 
		599.49,326.25 	"/>
	<polyline class="st1" points="555.68,431.48 554.94,432.61 553.95,433.74 	"/>
	<path class="st2" d="M588.4,173.42"/>
	<path class="st2" d="M588.69,168.31c0,0,1.23,6.14-2.19,6.48s0,0,0,0l-0.53-1.59l-0.59-3.88L588.69,168.31"/>
	<polyline class="st1" points="555.57,431.64 554.01,433.74 553.03,431.86 552.91,431.27 554.45,430.72 555.57,431.64 	"/>
	<g id="Calque_4">
	</g>
	<g>
		<path class="st2" d="M593.8,343.9l-3.04-15.75l-11.68-6.64l-27.15-3.67l-24.97,10.84l-10.26,3.82l-18.08,37.64l-39.05,32.69
			c0,0,6.87,37.28,7.79,37.66c0.92,0.38,46.76,8.32,46.9,8.32c0.14,0,43.83-22.3,43.83-22.3l8.28-9.78l5.32-9.95l9.22-17.54
			l6.84-17.11l5.26-8.92l1.33-1.64v-9.19L593.8,343.9z"/>
		<path class="st2" d="M531.37,322.25l-22.94,17.87l-5.24-9.56c0,0,6.19-45.2,6.64-45.89c0.46-0.69,11.01-32.53,11.01-32.53v-24.75
			l8.73-12.68l9.51,0.75l15.42,6.78l13.75,12.83l13.29,20.62v38.15l-13.29,25.66c0,0,19.86-37.69,20.24-37.35
			c0.38,0.34,8.51,12.49,8.51,12.49l8.28,25.56l-1.26,8.47l-0.78,3.4l-10.23,33.2l-34.61,1.66l-42.27-11.57l3.89-22.86l-0.11-4.93
			l7.05,2.99L531.37,322.25z"/>
		<path class="st2" d="M400.91,460.31c-4.33-0.74-8.63-1.64-12.83-2.67c-8.18-2.01-15.94-4.63-24.47-4.71c-0.56,0-1.02-0.16-1.4-0.4
			c-23.27,6.2-42.13,19.28-57.71,38.38c28.45,13.77,57.76,20.85,89,21.27c-0.12-1.63-0.18-2.75-0.28-3.86
			c-1.38-15.08,0.57-29.75,5.63-44.01C399.41,462.72,400.1,461.4,400.91,460.31z M369.55,501.99c-6.65-0.99-13.47-1.37-19.91-3.11
			c-8.11-2.19-15.93-5.46-23.84-8.33c-3.58-1.3-3.85-3.94-2.21-6.85c1.1-1.96,2.41-3.92,4.05-5.44
			c7.02-6.49,15.55-10.39,24.73-13.15c-3.35,1.89-6.76,3.68-10.02,5.71c-3.27,2.04-6.62,4.06-9.51,6.57
			c-2.91,2.53-5.29,5.64-8.32,8.96c14.72,8.53,29.92,11.71,45.25,14.48C369.69,501.21,369.62,501.6,369.55,501.99z"/>
		<path class="st1" d="M594.13,362.18c0,0.01-0.01,0.02-0.01,0.03c0.02,0.02,0.04,0.04,0.07,0.06
			C594.16,362.24,594.15,362.21,594.13,362.18z"/>
		<path class="st1" d="M594.13,362.18c7.26-20.29,14.07-41.32,11.6-68.47c-2.44-26.78-13.97-48.74-34.83-66.13
			c-9.72-8.1-20.99-11.01-33.66-12.33c14.83,11.82,29.43,23.16,37.99,40.96c-9.12-1.46-17.37-2.77-25.09-4
			c2.82,7.97,5.96,15.72,8.26,23.7c2.33,8.05,2.22,16.38,1.19,25.08c-5.63-3.81-10.79-7.29-16.31-11.02
			c-4.91,20.16-17.62,32.71-35.67,40.67c-0.08-1.1,0.15-2.02,0.72-2.63c0.66-0.71,1.64-1.13,2.46-1.7
			c15.65-10.94,26.69-24.52,26.17-44.72c-0.01-0.2,0.3-0.41,0.8-1.03c4.81,2.17,9.76,4.41,14.94,6.75
			c-1.25-17.67-9.02-32.03-21.28-45.69c11.23,2.12,20.99,3.96,32.03,6.04c-9.89-12.76-19.82-23.63-32.1-32.24
			c-0.86-0.61-2.15-0.85-3.25-0.87c-12.36-0.25-24.07,1.64-35.08,6.09c-0.91,0.37-5.72,3.01-15.35,8.23
			c-15.02,8.13-13.9,7.75-15.35,8.32c-1.32,0.51-8.53,3.83-13.86,7.27c-11.11,7.17-19.8,12.77-19.51,18.58
			c0.32,6.55,12,12.9,28.05,15.27c6.65,0.48,13.29,0.96,19.94,1.44c6.51,4.35,11.08,10.6,14.53,17.5c3.79,7.58,8.13,16.4,7.5,25.09
			c-0.34,4.64-2.2,8.7-5.87,11.68c-2.94,2.39-6.55,3.94-10.38,2.87c-3.72-1.04-6.44-3.89-8.73-7.13c-4.57,0.99-9.44,2.38-13.87,3.82
			c0.02,0.09,0.04,0.19,0.05,0.28c0.76,3.7,1.55,7.59,3.07,11.08c1.39,3.19,4.44,5.2,7.23,7.11c3.09,2.12,6.43,4.16,8.8,7.09
			c6.1,7.51-0.67,15.46-6.12,21.03c-5.54,5.65-11.77,9.41-19.49,11.48c-16.99,4.55-35.65,2.4-52.71-0.69
			c-21.16-3.83-42.67-8.78-61.63-19.19c-4.71-2.58-9.18-5.57-13.74-8.39c-5.27-3.26-9.49-6.08-12.26-7.92
			c-1.75-2.22-6.71-9.1-7.05-19.28c-0.35-10.36,4.31-17.67,5.91-19.96c7.06-13.48,14.12-26.97,21.18-40.45
			c1.18-8.43,1.74-14.73,1.88-19.46c-2.86-0.06-5.38-1.27-8.5-1.27c3.06-0.61,5.74,0.27,8.51,1.05c0.01-0.24,0.02-0.51,0.02-0.74
			c-4.04-0.91-8.25-2.32-11.85-4.48c-3.81,4.3-9.11,9.64-17.09,13.96c-6.31,3.42-15.72,8.51-26.03,5.21
			c-7.58-2.43-12.82-9.98-17.14-17.83c-1.1-2.01-1.36-4.5-0.68-7.41v0c0-4.32,2.97-8.84,4.06-10.2
			c39.47-49.82,67.77-65.79,67.77-65.79c56.41-31.68,112.34-31.18,120.7-31c79.01,1.66,129.46,43.32,132.54,37.87
			c3.09-5.47-45.61-51.5-115.5-68.16c-43.15-10.29-81.14-6.22-106.43-1.09c-1.04,0.68-2.52,1.81-3.82,3.58
			c-0.97,1.33-1.44,2.46-1.94,3.6c-1.09,2.53-2.44,4.93-3.55,7.46c-6.06,13.8-13.46,20.53-13.46,20.53
			c-9.7,8.82-24.07,12.21-27.14,12.31c-2.85,0.1-4.31,1.07-5.78,3.31c-6.04,9.24-13.73,16.79-24.21,21.01
			c-2.38,0.96-3.56,2.19-4.33,4.62c-4.22,13.22-11.54,24.32-23.12,32.49c-1.17,0.83-1.95,2.69-2.21,4.2
			c-1.87,10.55-5.56,20.36-12.76,28.45c-2.71,3.04-3.01,5.83-2.6,9.53c1.56,14.17-0.35,27.49-11,38.4c0.3,0.72,0.62,1.51,0.97,2.29
			c6.08,13.38,8.99,27.19,6.15,41.89c-0.23,1.2,0.89,3.09,1.95,4.03c11.8,10.43,19.26,23.11,21.36,38.78
			c0.17,1.24,1.3,2.87,2.42,3.39c18.68,8.64,32.65,22.33,43.73,39.27c1.06,1.62,3.32,3.09,5.24,3.45
			c16.06,3.02,30.79,8.9,43.83,18.78c0.95,0.72,2.56,1.05,3.76,0.87c2.29-0.33,3.73-0.35,5.06,0.25c7.6,0.4,14.71,2.49,22.07,4.39
			c6.7,1.73,13.69,3.09,20.64,4.01c1.43-0.18,3.01-0.2,4.73-0.08c10.81,0.77,21.77,1.35,32.53,0.5c11.31-0.9,21.53-5.58,29.39-12.94
			c-1.58-1.91,1.86-7.52,2.24-7.68c1.33-0.54,2.66-1.07,3.94-1.7c25.1-12.21,41.48-32.11,51.84-57.39c0.59-1.44,2.3-2.43,3.49-3.63
			c0.86,1.44,2.25,2.8,2.49,4.34c2.09,13.84,5.83,27.21,11.55,40c1.88,4.21,4.25,10.51,6.64,15.19c1.27-1.8,3.09-4.41,5.21-7.6
			c7.85-11.79,22.24-33.68,32.51-62.27c0.21-0.6,0.43-1.19,0.64-1.79c-10.25-8.09-13.58-19.03-12.65-31.65
			C583.96,341.77,587.2,352.67,594.13,362.18z M520.76,386.74c-6.68,17.41-16.71,31.86-34.61,39.3c-5.95,2.47-6.88,1.99-8.62-4.27
			c-1.3-4.7-2.28-9.5-0.31-14.38c0.86,4.38,1.71,8.75,2.58,13.13c0.35,1.73,0.93,2.8,1.81,3.27c1.45,0.77,3.35-0.1,4.28-0.55
			c14.43-7.08,19.96-13.53,19.96-13.53c2.82-3.29,5.01-6.82,9.38-13.88C516.56,393.69,519.68,388.53,520.76,386.74
			c0-0.01,0.01-0.01,0.01-0.02C521.31,385.83,521.21,385.99,520.76,386.74z M542.08,358.32c-4.47,3.45-6.56,3.45-10.83-0.33
			c-6.56-5.81-8.37-13.56-9.24-22.86c2.45,5.85,4,10.91,6.57,15.4c5.05,8.82,9.61,9.37,15.6,1.33c4.28-5.74,7.14-12.53,10.54-18.9
			c0.78-1.46,1.2-3.12,2.05-5.41C556.56,338.24,549.53,352.56,542.08,358.32z M558.53,423.7c-4.83-8.11-6.54-16.5-6.69-25.32
			c2.12,6.66,4.23,13.33,6.67,21.01c10.31-11.95,16.83-26.38,22.39-39.87C577.57,395.84,569.98,411.27,558.53,423.7z"/>
		<path class="st1" d="M326.74,255c3.13,0,5.64,1.22,8.5,1.27c0-0.07,0-0.15,0.01-0.22C332.48,255.27,329.8,254.39,326.74,255z"/>
		<path class="st1" d="M520.77,386.72c0,0.01-0.01,0.01-0.01,0.02C521.21,385.99,521.31,385.83,520.77,386.72z"/>
		<path class="st2" d="M479.07,493.5c-2.05-12.37-1.62-24.75,0.28-37.13c0.54-3.5,1.5-6.93,2.04-10.43
			c0.28-1.83,0.05-3.74,0.05-5.98c24.28-10.88,41.52-29.54,52.86-52.54c4.69,12.4,9.41,25.09,14.32,37.7
			c1.32,3.39,4.99,6.87,4.44,9.72c-0.65,3.41-4.58,6.27-7.25,9.23c-17.86,19.76-38.45,36.07-62.48,47.97
			c-1.02,0.51-2.06,0.99-3.11,1.43C479.99,493.58,479.67,493.5,479.07,493.5z M488.83,453.48c-2.69,8.72-4.47,17.76-2.8,27.19
			c11.37-1.68,39.58-20.11,45.76-30.07c-13.68,10.87-27.58,20.06-44.23,27.13C488.02,468.95,488.43,461.21,488.83,453.48z"/>
		<path class="st2" d="M472.78,471.64c0.09-6.68,1.03-13.35,1.64-20.64c-10.24,7.03-21.23,10.91-32.96,11.37
			c-8.6,0.33-17.23-0.11-26.17-0.52c-0.37,0.18-0.81,0.28-1.35,0.22c-1.25-0.12-2.52-0.29-3.78-0.44c-1.5-0.06-3.02-0.12-4.54-0.16
			c-6.68,15.42-9.03,32.53-6.66,50.76c25.55-0.26,49.52-5.26,72.58-14.67c2.23-0.91,2.35-2.23,2.21-4.29
			C473.27,486.07,472.68,478.85,472.78,471.64z M438.26,499.64c-10.32,1.43-20.73,2.19-31.11,3.19c-2.93,0.28-4.33-1.16-3.99-4.02
			c0.87-7.35,1.82-14.7,2.74-22.05c0.39,0.05,0.79,0.11,1.18,0.16c-0.45,6.33-0.85,12.66-1.38,18.99c-0.28,3.34,1.04,4.67,4.44,4.24
			c14.34-1.81,28.68-3.54,43.02-5.3c0.27-0.03,0.54,0,1.01,0.71C448.87,496.96,443.65,498.89,438.26,499.64z"/>
		<path class="st2" d="M352.05,449.75c-33.09,17.57-33.09,17.57-52.49,38.61c-20.6-10.77-38.8-24.7-54.73-41.74
			C277.15,426.63,320.62,426.26,352.05,449.75z M259.45,445.94c5.74-1.37,10.48-2.71,15.31-3.59c4.86-0.89,9.81-1.32,14.73-1.94
			c-11.48-0.47-23.16-1.85-33.34,5.5c5.95,9.32,24.08,22.71,31.65,23.3C277.44,462.78,268.13,455.83,259.45,445.94z"/>
		<path class="st2" d="M206.39,388.12c37.82-13.67,76.35,5.25,96.2,38.64c-22.19-1.08-42.37,4.77-61.7,15.55
			C226.5,426.08,215.07,408.13,206.39,388.12z M217.54,390.48c4.74,12.65,11.36,23.55,22,31.81c-7.37-8.77-13.45-18.26-17.57-28.87
			c0.27-0.52,0.54-1.05,0.81-1.57c10.01,1.8,20.02,3.6,29.96,5.39C241.96,391.56,230.45,389.12,217.54,390.48z"/>
		<path class="st2" d="M256.23,382.09c-17.56-5.41-34.62-4.51-51.95,0.89c-7.36-18.2-11.79-36.77-13.56-56.08
			C220.46,327.3,253.11,354.59,256.23,382.09z M209.32,364.67c-2.01-8.89-3.82-16.92-5.89-26.06c11.91,3.81,20.23,10.34,28.53,16.89
			c-5.91-9.18-20.43-18.82-30.14-20.08C200.75,345.89,203.97,355.15,209.32,364.67z"/>
		<path class="st2" d="M195.84,260.19c24.21,15.06,43.94,55.76,37.17,76.5c-6.16-2.94-12.16-6.3-18.53-8.72
			c-6.94-2.64-14.24-4.32-21.31-6.62c-1.17-0.38-2.81-1.7-2.88-2.68c-1.47-19.54,0.46-38.81,5.06-57.84
			C195.4,260.59,195.67,260.4,195.84,260.19z M221.88,301.7c-3.99-11.88-10.75-21.73-21.23-29.08c-4.68,7.52-6,22.65-3.19,28.49
			c0.93-7.37,1.97-15.55,3.14-24.84C210.38,283.96,216.22,292.74,221.88,301.7z"/>
		<path class="st2" d="M216.39,207.23c12.03,19.22,22.3,38.02,21.05,60.65c-0.44,8.06-2.83,15.55-8.8,21.98
			c-8.09-13.53-18.35-24.74-29.96-34.81c-0.71-0.61-1.38-2.01-1.16-2.8C201.87,236.78,207.95,222,216.39,207.23z M217.26,224.55
			c4.53,7.51,8.53,14.14,12.39,20.55c0.37-5.78-8.12-21.59-14.1-25.46c-1.84,6.61-3.63,13.07-5.43,19.54
			c0.35,0.11,0.7,0.22,1.05,0.33C213.03,234.95,214.88,230.4,217.26,224.55z"/>
		<path class="st2" d="M240.15,243.8c-1.36-3.68-2.33-7.39-4.05-10.73c-4.86-9.47-10.08-18.76-15-28.2
			c-0.66-1.26-1.19-3.47-0.55-4.38c7.42-10.57,15.08-20.97,23-31.87C256.59,192.19,257.09,226.77,240.15,243.8z M248.93,208.68
			c2.09-6.21-0.62-23.4-4.97-29.57c-3.92,5.67-7.74,11.19-11.56,16.72c0.3,0.23,0.61,0.46,0.91,0.69
			c3.29-3.76,6.58-7.53,10.61-12.13C245.73,193.18,247.35,201.04,248.93,208.68z"/>
		<path class="st2" d="M279.64,137.74c5.4,26.18-1.05,56.2-20.68,70.19c-0.64-5.52-0.72-11.03-2-16.26c-1.98-8.1-4.86-15.97-7.16-24
			c-0.39-1.35-0.4-3.63,0.42-4.37C259.66,154.88,269.29,146.67,279.64,137.74z M273.75,153.52c0,8.26,0,16.09,0,24.81
			c4.02-10.26,3.91-20.03,2.96-31.2c-6.06,5.29-11.15,9.72-16.24,14.16c0.22,0.29,0.44,0.58,0.66,0.87
			C265.27,159.32,269.41,156.49,273.75,153.52z"/>
		<path class="st2" d="M320.91,118.41c-5.23,21.68-12.74,41.92-35.22,54.04c0.41-4.49,1.06-7.96,0.97-11.41
			c-0.2-7.65-0.83-15.29-1.14-22.93c-0.05-1.21,0.27-3.13,1.06-3.57c10.98-6.04,22.07-11.87,33.14-17.75
			C320.12,117.33,320.51,117.87,320.91,118.41z"/>
		<path class="st2" d="M328.92,114.34c-0.92,0.27-2.07,1.19-2.32,2.04c-2.99,10.31-5.83,20.66-8.68,30.86
			c15.52,0.67,33.56-16.73,40.29-41.24C347.87,108.92,338.38,111.56,328.92,114.34z"/>
		<path class="st1" d="M324.51,486.34c14.72,8.53,29.92,11.71,45.25,14.48c-0.07,0.39-0.14,0.78-0.21,1.17
			c-6.65-0.99-13.47-1.37-19.91-3.11c-8.11-2.19-15.93-5.46-23.84-8.33c-3.58-1.3-3.85-3.94-2.21-6.85c1.1-1.96,2.41-3.92,4.05-5.44
			c7.02-6.49,15.55-10.39,24.73-13.15c-3.35,1.89-6.76,3.68-10.02,5.71c-3.27,2.04-6.62,4.06-9.51,6.57
			C329.92,479.91,327.54,483.03,324.51,486.34z"/>
		<path class="st2" d="M463.5,438.41c-17.75,6.74-32.57,9.29-35.57,6.19c-2.96-3.07,5.16-12.18,19.13-21.79
			c-3.47,2.85-19.51,16.26-15.5,20.16c3.07,2.99,17.49,0.02,24.18-1.86C459.09,440.16,461.72,439.15,463.5,438.41z"/>
		<path class="st2" d="M408.49,444.29c0.02,0.38-5.65,0.36-12.3-0.24c-9.01-0.82-30.89-3.72-31.76-8.31c-0.4-2.1,3.65-4,9.59-6.05
			c6.15-2.12,15.01-4.56,26.62-5.84c-3.14,0.75-7.58,1.88-12.81,3.47c-13.09,3.99-20.8,6.34-20.36,8.64
			C368.44,441,408.43,443.27,408.49,444.29z"/>
		<path class="st1" d="M488.83,453.48c-0.4,7.74-0.81,15.47-1.26,24.25c16.65-7.07,30.55-16.26,44.23-27.13
			c-6.18,9.96-34.39,28.39-45.76,30.07C484.36,471.24,486.13,462.2,488.83,453.48z"/>
		<path class="st1" d="M407.07,476.92c-0.45,6.33-0.85,12.66-1.38,18.99c-0.28,3.34,1.04,4.67,4.44,4.24
			c14.34-1.81,28.68-3.54,43.02-5.3c0.27-0.03,0.54,0,1.01,0.71c-5.3,1.4-10.52,3.33-15.91,4.07c-10.32,1.43-20.73,2.19-31.11,3.19
			c-2.93,0.28-4.33-1.16-3.99-4.02c0.87-7.35,1.82-14.7,2.74-22.05C406.29,476.82,406.68,476.87,407.07,476.92z"/>
		<path class="st1" d="M259.45,445.94c8.68,9.89,17.99,16.84,28.34,23.27c-7.57-0.6-25.7-13.98-31.65-23.3
			c10.18-7.35,21.86-5.96,33.34-5.5c-4.91,0.63-9.86,1.06-14.73,1.94C269.93,443.23,265.19,444.57,259.45,445.94z"/>
		<path class="st1" d="M217.54,390.48c12.91-1.36,24.43,1.07,35.21,6.75c-9.94-1.79-19.95-3.59-29.96-5.39
			c-0.27,0.52-0.54,1.05-0.81,1.57c4.12,10.61,10.2,20.1,17.57,28.87C228.9,414.03,222.28,403.13,217.54,390.48z"/>
		<path class="st1" d="M209.32,364.67c-5.35-9.52-8.57-18.78-7.49-29.24c9.7,1.26,24.22,10.9,30.14,20.08
			c-8.3-6.56-16.62-13.08-28.53-16.89C205.5,347.75,207.31,355.78,209.32,364.67z"/>
		<path class="st1" d="M221.88,301.7c-5.65-8.95-11.49-17.74-21.29-25.43c-1.17,9.29-2.21,17.47-3.14,24.84
			c-2.81-5.84-1.48-20.97,3.19-28.49C211.13,279.97,217.89,289.82,221.88,301.7z"/>
		<path class="st1" d="M217.26,224.55c-2.38,5.84-4.23,10.4-6.09,14.96c-0.35-0.11-0.7-0.22-1.05-0.33
			c1.8-6.47,3.59-12.94,5.43-19.54c5.98,3.87,14.47,19.68,14.1,25.46C225.79,238.69,221.79,232.06,217.26,224.55z"/>
		<path class="st1" d="M248.93,208.68c-1.57-7.64-3.19-15.5-5-24.29c-4.03,4.6-7.32,8.37-10.61,12.13c-0.3-0.23-0.61-0.46-0.91-0.69
			c3.82-5.52,7.64-11.05,11.56-16.72C248.31,185.28,251.02,202.47,248.93,208.68z"/>
		<path class="st1" d="M273.75,153.52c-4.34,2.97-8.48,5.8-12.62,8.63c-0.22-0.29-0.44-0.58-0.66-0.87
			c5.09-4.44,10.18-8.87,16.24-14.16c0.95,11.17,1.06,20.95-2.96,31.2C273.75,169.61,273.75,161.78,273.75,153.52z"/>
		<path class="st1" d="M309.75,131.35c-5.09,1.33-9.94,2.6-14.79,3.87c-0.11-0.35-0.22-0.69-0.33-1.04
			c3.35-1.62,7.03-3.22,11.03-4.74c3.14-1.2,6.16-2.22,9.04-3.1c-0.83,4.09-2.45,9.29-5.02,15.14c-2.06,4.7-4.68,9.08-8.3,13.23
			C304.32,146.5,306.96,139.13,309.75,131.35z"/>
		<path class="st1" d="M342.42,119.17c-4.75,0.67-9.27,1.3-13.79,1.94c0.14-0.42,0.29-0.84,0.43-1.26
			c6.4-1.77,12.79-3.54,20.41-5.65c-3.17,4.81-7.22,10.26-12.31,15.78c-5.86,6.37-11.57,11.21-16.46,14.82
			c7.11-5.65,14.25-13.1,20.17-22.96C341.41,120.95,341.93,120.06,342.42,119.17z"/>
		<path class="st2" d="M486.92,236.14c5.92-7.41,13.25-11.04,18.33-8.99c0.96,0.39,2.08,1.07,3.18,2.35"/>
		<polygon class="st2" points="342.17,134.61 343.04,134.42 347.78,133.36 349.26,129.77 		"/>
		<path class="st2" d="M574.2,155.42l-15.19-12.26l-20.12-15.28l-21.24-9.36l-13.53-6.07l-18.89-4.62l-12.77-5.49l-32.94-4.69
			l-19.1-0.65l-22.52-0.56L379.01,99c0,0-12.82,2.29-14.13,2.55c-1.32,0.26-12.93,2.65-12.93,2.65l-4.34,15.12
			c0,0-7.97,15.47-9,15.45s-3.51,3.04-3.51,3.04l11.74-2.14l0.95-2.3l-4.74,1.06l-0.87,0.19l7.09-4.84l-1.48,3.59l8.03-1.79
			l16.15-8.11l11.04-7.84h14.52l19.22-2.58l5.35-4.93l10.02,4.93l10.82,4.71l12.03,2.8l14.05-1.23l5.11-2.65l2.17,3.91l6.55,4.63
			l7.87,2.65l12.13,1.11l10.7-1.33l2.16-0.67c0,0,1.3,3.46,1.65,3.87c0.35,0.41,14.97,14.02,14.97,14.02l10.62,4.77l10.17,1.72
			l5.66-0.36l3.15,5.06l8.04,6.65l5.23,4.46l4.37,4.23l5.91,2.14l2.61-1.11v-3.6L574.2,155.42z"/>
		<path class="st2" d="M604.02,328.67c-10.3-8.1-13.65-19.05-12.72-31.7C593.81,308.21,597.06,319.15,604.02,328.67z"/>
		<path class="st2" d="M345.48,424.46c-0.24,0.32-5.25-0.84-10.74-2.7c-7.44-2.52-24.87-9.39-22.53-13.4
			c1.07-1.84,5.94-2.6,12.59-3.11c6.89-0.52,9.13-0.07,20.29,1.21c-3.29-0.01-11.07-0.69-16.78-0.41
			c-14.3,0.68-12.39,1.1-13.54,3.11C312.2,413.58,346.11,423.6,345.48,424.46z"/>
		<path class="st3" d="M343.31,136.81c0.02,0,6.77-1.31,15.16-4.62c8.39-3.31,18.43-8.62,25.02-16.71c3.4-4.17,5.87-9.08,6.69-14.82
			c0.04-0.27-0.15-0.53-0.42-0.57c-0.27-0.04-0.53,0.15-0.57,0.42c-0.79,5.53-3.17,10.27-6.47,14.33
			c-6.4,7.87-16.31,13.13-24.62,16.41c-4.15,1.64-7.9,2.78-10.61,3.52c-1.36,0.37-2.45,0.63-3.21,0.8
			c-0.38,0.09-0.67,0.15-0.87,0.19c-0.2,0.04-0.3,0.06-0.3,0.06c-0.27,0.05-0.45,0.31-0.4,0.59
			C342.77,136.69,343.04,136.86,343.31,136.81L343.31,136.81z"/>
		<path class="st3" d="M381.58,117.27c0.03,0.01,5.32,1.36,12.91,1.36c5.71,0,12.72-0.77,19.77-3.46
			c7.04-2.69,14.12-7.32,19.91-15.02c0.17-0.22,0.12-0.53-0.1-0.7c-0.22-0.17-0.53-0.12-0.7,0.1c-5.68,7.54-12.58,12.05-19.47,14.69
			c-6.9,2.64-13.79,3.39-19.41,3.39c-3.74,0-6.91-0.33-9.14-0.67c-1.12-0.17-2-0.33-2.6-0.46c-0.3-0.06-0.53-0.11-0.69-0.15
			c-0.15-0.04-0.23-0.06-0.23-0.06c-0.27-0.07-0.54,0.09-0.61,0.36C381.15,116.93,381.31,117.2,381.58,117.27L381.58,117.27z"/>
		<path class="st3" d="M421.91,111.08c0.04,0.01,18.12,10.64,35.84,10.66c8.6,0.01,17.16-2.54,23.39-10.09
			c0.68-0.83,1.34-1.71,1.96-2.66c0.15-0.23,0.09-0.54-0.14-0.69c-0.23-0.15-0.54-0.09-0.69,0.14c-0.6,0.92-1.24,1.77-1.89,2.57
			c-6.01,7.27-14.21,9.72-22.62,9.72c-8.66,0-17.51-2.62-24.18-5.26c-3.34-1.32-6.13-2.63-8.08-3.62c-0.98-0.49-1.75-0.9-2.27-1.19
			c-0.26-0.14-0.46-0.26-0.6-0.33c-0.13-0.08-0.2-0.12-0.2-0.12c-0.24-0.14-0.54-0.06-0.68,0.18
			C421.59,110.63,421.67,110.94,421.91,111.08L421.91,111.08z"/>
		<path class="st4" d="M471.83,118.43c0.02,0.03,2.4,3.15,7.18,6.27c4.77,3.12,11.95,6.23,21.54,6.23c6.08,0,13.13-1.25,21.14-4.54
			c1.36-0.56,2.74-1.17,4.15-1.85l-0.43-0.9c-1.39,0.67-2.76,1.28-4.1,1.83c-7.9,3.24-14.81,4.47-20.76,4.47
			c-9.36,0-16.34-3.04-20.99-6.07c-2.32-1.52-4.06-3.03-5.21-4.17c-0.58-0.57-1.01-1.04-1.29-1.37c-0.14-0.16-0.25-0.29-0.32-0.38
			l-0.08-0.1l-0.02-0.03L471.83,118.43L471.83,118.43z"/>
		<path class="st5" d="M516.27,130.73c0.02,0.02,4.02,5.45,10.92,10.9c6.9,5.44,16.73,10.91,28.39,10.91c1.82,0,3.69-0.13,5.59-0.42
			c1.41-0.21,2.84-0.51,4.3-0.9l-0.26-0.97c-1.42,0.38-2.81,0.67-4.19,0.88c-1.86,0.28-3.67,0.41-5.44,0.41
			c-11.34,0-20.97-5.33-27.77-10.69c-3.4-2.68-6.09-5.36-7.93-7.37c-0.92-1-1.62-1.84-2.1-2.43c-0.24-0.29-0.42-0.52-0.54-0.68
			s-0.18-0.23-0.18-0.23L516.27,130.73L516.27,130.73z"/>
		<path class="st6" d="M558.74,152.17c0.01,0.01,2.9,3.54,7.09,7.84c4.2,4.31,9.7,9.39,14.98,12.53c1.51,0.9,3,1.63,4.45,2.14
			l0.33-0.94c-1.37-0.48-2.8-1.19-4.27-2.06c-5.14-3.05-10.61-8.09-14.77-12.37c-2.08-2.14-3.84-4.09-5.08-5.5
			c-0.62-0.71-1.11-1.28-1.44-1.67c-0.33-0.39-0.51-0.61-0.51-0.61L558.74,152.17L558.74,152.17z"/>
		<path class="st1" d="M366.16,108.7l16.38-0.49c0,0-13.38,15.92-22.91,17.37c0,0,16.92-12.55,17.13-14.6l-10.74-1.25L366.16,108.7z
			"/>
		<path class="st1" d="M398.26,103.49h21.92c0,0-12.37,10.31-20.77,9.78c0,0,15.43-6.19,16.27-8.25l-17.41-0.38V103.49z"/>
		<path class="st1" d="M440.08,103.49l26.8,11.33c0,0-20.44,1.02-25.93-1.3c-5.49-2.32,19.6,0.24,19.6,0.24l-19.49-9.35
			L440.08,103.49z"/>
		<path class="st1" d="M488.86,113.61l17.5,13.73c0,0-16.58-0.08-25.04-6.04c0,0,17.52,5.22,19.12,3.28l-12.37-10.06L488.86,113.61z
			"/>
		<path class="st1" d="M523.59,133.37c0,0,11.81,14.19,25.84,14.87c0,0-11.85-13.65-16.22-14.01l11.42,11.86
			c0,0-10.18-2.75-18.52-11.32L523.59,133.37z"/>
		<path class="st1" d="M566.55,154.47c0,0,12.14,13.4,14.55,15.12c2.41,1.72,1.59-2.95,1.59-2.95l-0.9,1.69L566.55,154.47z"/>
		<path class="st1" d="M504.54,224.89c1.12,1.73,0.3,4.24-1.83,5.62c-2.13,1.38-4.76,1.09-5.87-0.64c-1.12-1.73-0.3-4.24,1.83-5.62
			C500.8,222.88,503.43,223.17,504.54,224.89z"/>
		<path class="st2" d="M294.66,394.79c-0.13,0.25-3.46-2.5-7.16-6.09c-5.02-4.86-16.85-17.21-15.7-20.47
			c0.53-1.49,3.61-0.71,7.86,0.89c4.4,1.65,10.51,4.42,17.82,9.23c-2.12-1.05-5.15-2.5-8.81-4.03c-9.17-3.84-14.57-6.11-15.14-4.48
			C272.26,373.43,295,394.13,294.66,394.79z"/>
		<path class="st2" d="M515.63,322.72l-1.52,1.18l-2.07,1.53l-2.41,1.61l-1.14,0.83l-0.51,0.65l0.18,1.88l1.22-0.56l6.06-3.14
			l4.78-3.01l2.7-1.96l3.46-2.87l3.29-3.2l2.54-2.89l2.01-2.62l1.82-2.71l2.1-3.65l0.65-1.28l4.5-12.55l1.48,1l2.24,1.51l10.47,6.53
			l2.17,1.46l0.32-3.21l-1.65-7.79l-10.92-38.13l3.84,1.05l2.75,0.44l20.37,3.04l0.63-0.13l-1.19-2.32l-3.39-2.71l-8.42-10.29
			l4.66,9.43c0,0-16.5-1.83-17.41-1.95c-0.92-0.11-4.93,0.69-4.93,0.69l3.9,12.83l7.33,30.47l-10.88-7.29l-7.26,10.62l-4.35,11.71
			l-11.04,12.58L515.63,322.72z"/>
		<path class="st1" d="M240.52,243.43l-0.36,0.37l-2.64-7.55l-2.39-5.09l-2.14-4.05l-3.13-5.86l-2.41-4.5l-3.66-6.82l-0.94-1.77
			l-1.73-3.3l-0.31-0.69l-0.21-0.62l-0.19-0.76l-0.06-0.33l-1.43,1.16l-2.36,3.46l0.19,0.68l0.82,1.32l1.05,1.7l1.7,2.82l2.4,4.06
			l3.17,5.75l1.15,2.25l1.88,3.82l1.71,3.78l1.35,3.19l0.84,2.21l1.12,3.26c0,0,0.98,3.26,1.01,3.38c0.03,0.12,0.46,1.9,0.46,1.9
			l2.33,0.12l4.63-2.39L240.52,243.43z"/>
		<polygon class="st1" points="496.07,228.26 497.2,227.73 497.82,227.47 499.05,227.05 500.22,226.77 500.8,226.68 501.5,226.6 
			501.95,226.58 502.48,226.58 503.05,226.62 503.45,226.66 504.03,226.77 504.62,226.92 505,227.05 505.02,227.05 505.01,227.16 
			504.95,227.48 504.87,227.78 504.72,228.19 504.59,228.47 504.35,228.89 504.15,229.18 503.81,229.59 503.34,230.05 
			502.96,230.35 502.64,230.56 502.41,230.7 501.98,230.92 501.65,231.05 501.22,231.2 500.92,231.27 500.6,231.33 500.33,231.36 
			500.18,231.38 499.93,231.38 499.65,231.38 499.39,231.36 499.2,231.33 499.01,231.3 498.78,231.24 498.56,231.18 498.33,231.09 
			498.11,230.99 497.89,230.87 497.64,230.71 497.47,230.58 497.32,230.44 497.17,230.29 497,230.09 496.81,229.82 496.65,229.52 
			496.53,229.23 496.45,228.97 496.39,228.71 496.36,228.44 496.34,228.21 496.34,228.12 		"/>
		<polygon class="st1" points="555.75,433.87 554.54,431.37 553.44,428.93 552.55,426.84 551.38,424.03 550.01,420.75 
			548.63,417.61 546.81,413.25 545.33,409.39 544.32,406.55 543.31,403.5 542.45,400.73 541.69,398.09 540.99,395.51 540.47,393.45 
			539.89,391.02 539.39,388.76 538.91,386.47 538.43,383.95 538.02,381.64 537.67,379.42 537.55,378.68 537.38,378.01 
			537.14,377.47 536.79,376.86 536.19,375.98 535.39,374.86 535.07,374.34 534.12,375.2 533.09,376.08 532.47,376.68 531.82,377.51 
			531.34,378.56 530.5,380.55 529.09,383.69 526.59,388.82 525.16,391.5 523.7,394.1 522.65,395.88 520.71,398.99 517.94,403.06 
			516.84,404.58 515.42,406.46 514.15,408.07 512.57,409.98 511.31,411.44 509.12,413.85 505.66,417.36 504.6,418.36 503.06,419.77 
			501.6,421.06 499.32,422.96 497.79,424.18 496.81,424.93 495.25,426.11 491.72,428.54 487.9,430.95 485.49,432.35 482.5,433.98 
			479.37,435.54 477.08,436.54 475.72,437.12 475.52,437.36 474.85,438.43 474.45,439.16 474,440.09 473.53,441.32 473.29,442.17 
			473.15,443.06 473.15,443.87 473.55,444.74 474.44,451.04 474.24,453.06 473.69,458.71 473.35,462.13 473.02,466.21 472.8,470.93 
			472.79,475.32 472.9,478.87 473.05,482.48 473.42,488.4 473.8,493.76 473.79,494.85 479.05,493.41 478.62,490.41 478.29,487.67 
			478.02,484.79 477.82,481.35 477.72,478.77 477.76,473.81 477.94,469.68 478.23,465.47 478.71,461.13 479.6,454.98 480.51,450.6 
			481.15,447.35 481.47,445.27 481.52,442.61 481.44,439.96 485.22,438.17 488.33,436.56 491.73,434.65 495.94,432.02 
			499.17,429.85 502.14,427.65 504.83,425.47 507.26,423.4 508.29,422.48 510.09,420.82 511.97,418.99 514.88,415.97 518.76,411.56 
			521.71,407.86 524.82,403.59 527.14,400.11 529.49,396.37 532.22,391.53 533.36,389.3 534.28,387.46 535.42,390.39 538.35,398.16 
			540.55,403.99 542.72,409.73 545.4,416.77 548.17,423.96 549.18,426.32 550.4,428.39 551.48,430.08 552.29,431.49 552.67,432.29 
			552.89,432.9 553.04,433.45 		"/>
		<path class="st1" d="M473.23,444.03l0.01,0.09l0.08,0.24l0.08,0.17l0.15,0.21l0.36,0.06c0,0,0.83-1.88,0.78-1.98
			c-0.04-0.11-0.96-2.09-0.96-2.09l-0.06,0.17l-0.15,0.37l-0.12,0.43l-0.16,0.66l-0.05,0.3l-0.04,0.29l-0.01,0.25v0.41l0.14,0.26
			L473.23,444.03z"/>
		<path class="st1" d="M473.55,444.74l-0.67,0.62l-1.03,0.91l-1.53,1.25l-1.08,0.84l-1.94,1.35l-3.53,2.14l-1.67,0.88l-1.34,0.64
			l-0.85,0.38l-1.47,0.62l-1.18,0.45l-1.79,0.62l-2.32,0.69l-1.69,0.43l-1.89,0.4l-3.35,0.52l-2.49,0.24c0,0-3.93,0.24-4.04,0.24
			c-0.11,0-3.06,0.1-3.06,0.1l-3.34,0.04l-5.09-0.05l-5.44-0.19l-5.39-0.29l-3.76-0.25l-1.68-0.12l-1.43-0.08l-1.2-0.02l-1.34,0.05
			l-1.12,0.1l-5.83-0.88l-4.16-0.75l-4.48-0.92l-5.39-1.27l-4.77-1.25l-3.95-1.01l-4.28-0.98l-1.82-0.36l-2.6-0.44l-2.49-0.32
			l-2.26-0.2l-0.62-0.04l-0.18-0.08l-0.52-0.18l-0.62-0.14l-0.67-0.07l-0.49-0.01l-0.42,0.01l-0.42,0.02l-0.39,0.03l-0.38,0.04
			l-0.41,0.05l-0.42,0.06l-0.39,0.05l-0.42,0.02l-0.3-0.01l-0.38-0.03l-0.45-0.07l-0.35-0.08l-0.34-0.1l-0.27-0.09l-0.37-0.16
			l-0.21-0.1l-0.23-0.13l-0.22-0.15l-3.38,1.96l0.06,0.05l-0.08,0.05l-0.24,0.13l-0.33,0.18l-0.68,0.36l-0.63,0.33l-0.72,0.38
			l-1.21,0.64l-0.77,0.41l-1.14,0.61l-1.2,0.64l-0.79,0.42l-0.7,0.37l-1.18,0.63l-1.34,0.72l-1.43,0.77l-0.84,0.45l-0.72,0.39
			l-0.97,0.53l-0.46,0.25l-1.04,0.57l-1.06,0.59l-1.12,0.62l-0.98,0.55l-1.55,0.88l-1.26,0.73l-0.77,0.46l-2.07,1.25l-1.36,0.85
			l-0.77,0.5l-0.54,0.35l-0.8,0.53l-0.7,0.48l-0.8,0.56l-1.29,0.94l-1.16,0.88l-1.79,1.43l-1.65,1.4l-1.43,1.28l-1.9,1.79
			l-2.45,2.44l-2.99,3.11l-2.86,3.05l-2.19,2.36l-2.52,2.73l4.94,2.57l0.91-1.1l2.06-2.42l2.11-2.37l1.95-2.09l3.53-3.55l2.81-2.63
			l2.72-2.34l3.42-2.84l2.11-1.62l2.28-1.61l1.79-1.24l2.55-1.72l1.49-0.89l2.96-1.79l3.37-1.83l2.26-1.14l4.02-1.86l3.62-1.5
			l4.39-1.58l3.44-1.12l3.06-0.93l0.83-0.23l0.3,0.16l0.68,0.2l1.81,0.07l3.55,0.28l2.01,0.27l1.32,0.22l3.01,0.59l2.95,0.68
			l4.07,1.04l3.32,0.87l3.66,0.92l3.26,0.75l3.35,0.71l3.13,0.6l2.29,0.41l-0.77,1.18l-0.79,1.55l-0.81,2.16l-0.57,1.7l-0.97,3.11
			l-1.18,4.34l-0.94,4.11l-0.49,2.54l-0.49,3.06l-0.36,2.53l-0.23,2.04l-0.29,3.4l-0.15,2.6l-0.07,2.82l-0.02,2.55l0.12,3.95
			l0.12,1.99l0.14,1.79l0.14,1.6l0.2,2.87l5.46,0.04l-0.17-1.39l-0.28-2.75l-0.28-3.78l-0.15-3.5l0-3.67l0.11-3.79l0.3-4.05
			l0.43-3.76l0.62-3.82l0.73-3.75l0.96-3.92l1.11-3.81l1.28-3.76l1.32-3.35l0.68-1.67l3.34,0.15l1.22,0.05l2.6,0.29l1.32,0.14
			l0.48-0.02l0.26-0.05l0.18-0.05l0.27-0.11l1.81,0.08l2.35,0.11l4.29,0.18l7.13,0.22l4.57,0.08l4-0.09l3.98-0.14l1.56-0.17
			l3.54-0.46l2.73-0.47l1.92-0.44l3.88-1.09l2.32-0.79l1.54-0.58l2.83-1.2l1.97-0.97l1.81-0.89l1.9-1.05l1.53-0.94l1.55-0.97
			l1.94-1.25"/>
		<polygon class="st1" points="355.25,447.65 353.88,446.64 350.9,444.56 346.5,441.78 344.76,440.77 339.85,438.18 331.8,434.65 
			323.07,431.68 315.2,429.66 311.34,428.91 310.25,428.59 309.71,428.34 308.92,427.93 308.18,427.43 307.39,426.77 306.33,425.58 
			305.08,423.66 303.48,421.34 301.41,418.5 298.66,414.98 295.72,411.48 293.32,408.83 289.38,404.75 285.84,401.47 282.73,398.72 
			278.39,395.51 275,393.17 269.78,389.96 267.11,388.48 264.86,387.35 262.4,386.16 261.8,385.68 261,384.83 260.55,384.08 
			260.24,383.32 259.84,381.02 259.29,378 258.78,375.89 258.23,373.59 257.02,370.1 255.7,366.7 253.65,362.53 251.32,358.57 
			249.85,356.39 248.5,354.49 246.01,351.42 243.35,348.48 241.2,346.34 239.43,344.65 238.14,343.38 237.51,342.47 237.26,342.03 
			236.95,341.28 236.81,340.78 236.8,340.24 237.02,339.04 237.67,334.58 237.92,329.34 237.9,326.92 237.64,322.79 237.27,319.61 
			236.58,315.82 235.72,312.14 234.73,308.67 233.34,304.6 232.27,301.86 231.42,299.74 229.98,296.36 229.71,295.87 228.64,289.86 
			226.67,286.56 224.67,283.59 222.18,280.15 219.01,275.98 217.03,273.56 215,271.18 213.51,269.52 212.33,268.23 210.29,266.07 
			208.8,264.51 206.78,262.51 205.26,261.06 203.86,259.71 201.57,257.61 199.91,256.13 198.84,255.2 198.66,255.04 198.55,254.93 
			198.4,254.77 198.21,254.52 198.05,254.3 195.84,260.19 196.43,260.57 197.77,261.45 199.26,262.51 201.1,263.92 202.83,265.34 
			203.96,266.32 205.43,267.66 207.38,269.56 208.59,270.83 210.54,272.92 211.37,273.89 213.22,276.09 214.42,277.59 
			216.15,279.89 216.98,281.03 218.46,283.18 220.38,286.11 222.61,289.83 224.36,293.01 225.48,295.18 226.21,296.67 
			227.36,299.13 228.14,300.92 229.42,304.07 230.21,306.19 231.05,308.68 231.66,310.62 232.36,313.13 232.81,314.98 
			233.27,317.09 233.51,318.38 233.81,320.21 234.02,321.75 234.21,323.7 234.27,324.59 234.34,326.19 234.36,328.36 234.28,329.8 
			234.11,331.59 233.89,333.11 233.38,335.46 233.01,336.69 231.42,335.92 229.6,335.02 227.1,333.77 225.17,332.8 222.79,331.63 
			219.6,330.12 217.08,329.01 214.11,327.83 211.4,326.86 207.99,325.76 204.91,324.83 201.44,323.83 197.94,322.82 194.32,321.72 
			193.16,321.35 192.63,321.13 191.97,320.75 191.34,320.27 190.99,319.94 190.6,319.46 190.73,326.89 192.93,327 194.05,327.05 
			195.98,327.23 197.12,327.38 197.78,327.47 199.61,327.78 200.94,328.03 202.59,328.4 204.04,328.76 205.26,329.09 206.44,329.43 
			208.22,330 209.65,330.49 211.3,331.11 212.72,331.67 214.65,332.5 215.97,333.11 217.96,334.08 219.48,334.87 221.68,336.08 
			223.1,336.92 225.86,338.66 227.73,339.93 228.94,340.79 230.92,342.28 232.18,343.27 232.95,343.9 233.8,344.64 235.65,346.26 
			236.73,347.23 237.85,348.32 238.85,349.3 239.98,350.46 240.7,351.24 241.94,352.61 242.94,353.78 244.4,355.56 244.88,356.18 
			245.83,357.44 246.63,358.54 247.63,360 248.65,361.58 249.62,363.17 250.39,364.55 250.98,365.65 251.92,367.53 252.39,368.55 
			252.94,369.81 253.41,370.96 253.78,371.93 254.16,373.01 254.67,374.6 254.85,375.22 255.31,376.94 255.65,378.45 255.89,379.91 
			256.23,382.09 255.86,381.97 253.81,381.38 252.34,380.99 250.55,380.58 248.86,380.21 245.63,379.56 243.67,379.26 
			241.42,378.97 238.8,378.71 236.42,378.53 234.33,378.48 231.31,378.46 229.26,378.51 226.23,378.68 224.35,378.83 222.91,378.98 
			220.56,379.28 218.17,379.64 214.99,380.22 213.2,380.6 210.68,381.19 208.62,381.72 207.34,382.07 205.81,382.51 204.78,382.82 
			204.29,382.98 206.39,388.12 208.09,387.57 209.8,387.01 211.72,386.45 212.96,386.11 215.14,385.57 217.01,385.16 218.47,384.88 
			221.78,384.34 222.92,384.2 226.5,383.82 228.11,383.72 230.62,383.64 231.91,383.64 234.92,383.71 235.97,383.76 237.78,383.89 
			240.54,384.18 241.6,384.32 248.08,385.53 254.49,387.27 259.8,389.2 263.04,390.59 270.79,394.67 278.32,399.69 286.69,406.74 
			290.9,411.05 296.07,417.16 299.08,421.3 302.59,426.76 295.49,426.65 287.02,427.14 279.69,428.14 274.42,429.18 267.35,431.01 
			260.1,433.41 252.22,436.62 245.91,439.63 240.91,442.34 244.84,446.62 248.78,444.35 257.92,439.84 268.87,435.92 275.56,434.2 
			284.56,432.68 296.1,431.86 302.37,432.04 308.31,432.52 315.25,433.6 326.05,436.36 332.03,438.55 339.19,441.79 345.68,445.43 
			352.47,450.1 355.59,448.15 		"/>
		<polygon class="st1" points="229.55,296.03 229.87,295.72 230.65,294.88 231.99,293.35 232.92,292.19 234.36,290.25 
			234.98,289.24 235.88,287.75 236.73,286.15 237.59,284.36 238.43,282.29 239.19,280.19 239.79,277.91 240.09,276.62 
			240.54,274.26 240.87,271.88 241.06,269.77 241.16,267.81 241.19,266.64 241.22,264.94 241.12,262.46 240.96,260.07 240.8,258.28 
			240.62,256.39 240.58,255.62 240.57,255.09 240.58,254.58 240.63,253.77 240.84,252.47 241.13,251.5 241.43,250.75 242.17,249.42 
			243.46,247.77 245.18,245.71 246.81,243.5 247.94,241.79 249.87,238.46 251.09,235.99 252.02,233.85 253.1,231.02 253.81,228.9 
			254.45,226.7 255.07,224.32 255.64,221.75 256.09,219.36 256.26,218.67 256.63,217.59 256.86,217.09 257.27,216.39 257.69,215.84 
			258.1,215.44 258.72,214.99 259.58,214.36 260.38,213.75 261.78,212.64 262.96,211.65 263.99,210.73 264.84,209.94 265.68,209.13 
			267.11,207.68 267.75,206.99 258.98,207.97 258.63,204.56 258.3,200.59 257.93,197.15 257.16,192.53 256.18,188.64 255.23,185.28 
			253.81,180.63 253.12,178.55 252.08,175.15 251.07,171.89 250.01,168.39 249.74,167.42 243.57,168.65 244.81,170.99 
			246.27,174.07 248.14,178.7 249.29,182.04 250.9,187.86 251.71,191.69 252.33,195.49 252.81,199.65 253.04,203.07 253.12,207.82 
			252.94,211.95 252.75,214.3 252.02,219.37 250.88,224.37 249.71,228.13 247.61,233.17 245.07,237.71 243.42,240.07 240.17,243.83 
			235.27,246.58 236.28,251.07 236.71,253.21 236.86,254.49 237.19,257.23 237.37,259.32 237.54,262.41 237.54,264.76 
			237.39,268.85 236.95,272.49 236.25,275.96 235,279.85 233.92,282.3 232.26,285.24 230.94,287.15 229.43,289.03 227.61,290.95 		
			"/>
		<path class="st1" d="M587.83,171.18l-4.28-5.19l-5.69-4.81c0,0-6.07-5.58-6.26-5.8c-0.19-0.23-7.75-5.96-7.75-5.96l-8.38-5.77
			l-10.1-6.61l-8.37-5l-9.23-5.23l-6.87-3.13l-11.46-5.02l-7.45-2.98l-11.57-4.03l-12.98-3.89l-11.23-2.56l-13.29-2.21l-13.79-1.91
			l-7.9-0.7h-13.53h-11.79l-9.74,0.75l-16.31,1.59l-15.89,1.57l-8.36,1.18l-15.27,4.28l-9.81,2.48l-7.41,1.6l-7.6,3.52l-10.88,6.18
			l-10.29,5.54l-5.71,2.6c-2.25,0.92-10.88,5.69-10.88,5.69l-11.09,9.37l-7.5,6.13l-8.55,6.38c-1.41,0.69-7.08,7.22-7.08,7.22
			l-3.3,4.89l-5.25,7.39l-4.43,6.07l-3.8,5.17l-3.72,5.35l-4.28,5.71l-3.86,6.74l-3.13,5.77l-3.15,6.64l-2.94,6.13l-2.92,6.72
			l-2.27,5.9l-1.83,5.5l-1.45,4.83l-1.51,5.29l-1.51,6.61l-1.28,6.28l-1.07,5.25l-0.76,4.54l-0.74,5l-0.47,4.53l-0.46,5.08
			l-0.27,4.22l-0.19,2.96l-0.11,3.22l-0.13,2.78v3.76l0.15,5.44l0.31,6.13l0.08,4.24l0.29,3.67l0.81,7.48l0.95,5.94l1.18,6.55
			l1.05,4.98l0.73,3.17l1.49,5.37l1.49,4.91l1.66,5.58l0.94,2.79l0.76,2.5l1.95,4.85l1.97,4.56l2.04,4.83l2.1,4.56l2.2,4.37
			l3.19,6.17l4.33,7.08l3.59,5.9l3.34,4.95l3.9,5.44l3.74,4.75l3.78,4.56l5.06,5.79l4.43,4.98l4.01,4.2l3.51,3.3l5,4.43l4.05,3.59
			l4.54,3.74l4.09,3.34l4.43,3.42l6.76,4.28l6.38,3.95l6.82,4.03l7.85,4.18l5.9,2.88l5.04,2.44l6.93,2.56l5.4,1.87l6.47,2.2
			l5.69,1.79l6.86,2.04l8.03,1.66l8.78,1.72l6.89,0.95l9.37,0.78l5.73,0.38l7.29,0.36l4.51,0.11h6.42l6.64-0.38l6.4-0.55l7.18-0.83
			l6.97-0.98l7.12-1.32l7.79-1.76l9.89-2.81l7.12-2.29l7.37-2.44l7.39-2.92l6.76-3.23l6.85-3.99l7.14-4.26l7.64-4.77l6.82-4.72
			l7.14-5.21l8.92-7.56l7.96-7.05l7.29-6.99l7.75-8.36c3.43-2.86,4.32-7.35,4.39-7.69l0-0.02l-0.2-0.42l-1.75-0.57l-0.87,0.1
			l0.13,0.55l0.05,0.38l0.01,0.47l-0.31,1.37l-0.74,1.5l-1.64,2.12l-2.72,2.76l-2.48,2.58l-4.88,5.21l-4.08,4.12l-5.33,5.12
			l-4.47,3.96l-5.48,4.63l-4.38,3.47l-4.21,3.16l-3.82,2.73l-3.38,2.3l-5.03,3.28l-11.28,6.49l-5.38,2.82l-2.12,1.01l-1.37,0.52
			l-0.42,0.01l-0.54-0.03l-0.03-0.27l-0.97-0.83l-4.28,1.96l-0.15,1.2l-0.38,0.78l-0.27,0.36l-1.37,0.82l-9.23,3.52l-10.49,3.39
			l-5.4,1.5l-10.27,2.39l-6.02,1.13l-9.52,1.42l-11.79,1.02l-9.44,0.3l-9.59-0.08l-13.05-0.76l-9.56-1.14l-5.97-0.89l-9.23-1.82
			l-5.38-1.25l-8.91-2.38l-8.45-2.69l-9-3.33l-8.69-3.63l-6.07-2.76l-12.72-6.78l-9.14-5.55l-7.78-5.26l-7.4-5.52l-6.02-4.9
			l-3.82-3.31l-3.58-3.26l-8.45-8.32l-5.75-6.22l-7.6-9.09l-4.95-6.52l-5.11-7.4l-3.05-4.78l-4.15-7.02l-3-5.51l-3.93-7.9
			l-1.83-3.99l-2.98-7.14l-0.38-0.96l-1.64-4.26l-2.47-7.04l-3.87-13.3l-1.41-6l-1.3-6.48l-1.2-7.36l-1.07-8.6l-0.16-1.61
			l-0.04-0.46l0.16,0.01l-0.18-7.29l-0.18-0.25l-0.18-0.37l-0.07-0.28l-0.04-0.74l-0.25-4.18l-0.16-4.9l-0.04-4.57l0.1-4.79
			l0.21-4.33l0.23-3.31l0.32-3.68l0.43-3.93l0.33-2.47l0.22-1.74l0.4-2.68l0.31-1.83l0.46-2.76l0.36-1.93l0.45-2.3l0.43-2.08
			l0.6-2.71l0.67-2.85l0.02-0.1l0.06-0.13l0.09-0.12l0.11-0.12l0.14-0.15l0.08-0.1l0.17,0.11l1.69-6.69l-0.1-0.27l-0.09-0.32
			l-0.05-0.29l0.01-0.33l0.17-0.58l0.63-2.17l2.17-6.97l2.41-6.78l2.37-5.99l1.61-3.77l2.09-4.58l2.37-4.8l1.67-3.31l1.66-3.04
			l1.28-2.36l0.46-0.81l0.38,0.61l3.58-5.22l-0.09-0.69v-0.7l0.09-0.33l0.15-0.35l0.73-1.05l2.12-3l2.11-2.9l1.19-1.67l2.41-3.4
			l1.09-1.45l2.18-3.01l2.01-2.76l2.94-4.04l2.6-3.62l2-2.7l1.22-1.72l0.46-0.58l6.18-4.52l0.18-0.44l0.3-0.34l0.92-0.82l1.62-1.44
			l2.91-2.57l2.86-2.5l5.78-5.07l2.9-2.5l1.83-1.57l0.92-0.79l1.69-1.45l1.27-1.09l1.54-1.33l1.84-1.59l1.36-1.17l1.35-1.17
			l0.61-0.53l0.07,0.33l5.97-1.79l0.1-0.39l0.23-0.64l0.15-0.28l0.2-0.25l0.21-0.17l0.83-0.46l1.43-0.74l2.24-1.26l3-1.59l2.81-1.51
			l3.57-1.96l2.82-1.5l3.08-1.6l3.16-1.72l3.42-1.81l2.13-1.13l2.77-1.47l1.15-0.61l0.76-0.4l0.08,0.11l6.98-0.93l0.15-0.22
			l0.15-0.18l0.29-0.3l0.31-0.26l0.53-0.36l0.42-0.21l0.45-0.15l2.98-0.87l4.69-1.35l4.98-1.42l4.24-1.2l3.5-0.99l3.86-1.09
			l3.71-1.05l1.17-0.33l7.41,0.38l1.3-0.26l3.68-0.7l2.53-0.45l3.38-0.57l3.36-0.52l2.82-0.4l2.4-0.32l2.99-0.36l2.15-0.24
			l2.26-0.23l3.08-0.29l3.19-0.26l2.73-0.19l2.27-0.13l3.51-0.17l2.7-0.09l4.05-0.09l3.88-0.02l2.54,0.02l2.52,0.05l2.75,0.08
			l2.58,0.1l2.8,0.14l2.4,0.15l4.43,0.34l4.69,0.45l3.25,0.37l3.63,0.46l3.07,0.44l3.21,0.5l2.98,0.51l3.98,0.74l3.16,0.64
			l4.42,0.97l4.86,1.17l2.27,0.59l3.1,0.84l2.14,0.61l5.37,1.62l5.69,1.86l5.18,1.83l5.27,1.99l4.6,1.85l3.84,1.62l5.05,2.25
			l3.54,1.65l2.27,1.1l3.54,1.76l3.18,1.64l4.84,2.6l3.64,2.04l3.86,2.25l4.3,2.62l2.87,1.81l3.29,2.15l2.45,1.65l2.84,1.97
			l3.45,2.48l1.62,1.2l1.9,1.44l1.54,1.19l2.56,2.04l2.62,2.17l2.41,2.08l2.66,2.41l2.58,2.47l1.87,1.91l1.77,1.93l1.81,2.19
			l1.04,1.44l0.66,1.05l0.59,1.18l-1.94-0.4c0,0-4.19-0.23,0.16,1.83C589.66,177.75,587.83,171.18,587.83,171.18z"/>
		<path class="st1" d="M258.96,207.94l1.83-1.38l1.62-1.36l1.81-1.69l2.01-2.11l1.9-2.26l2.18-2.99l2.45-3.97l1.93-3.76l1.23-2.81
			l1.09-2.83l1-3.02l0.72-2.49l0.69-2.79l0.69-3.38l0.55-3.46l0.31-2.51l0.24-2.58l0.09-1.54l0.14-3.83l0.03-2.93l-0.17-3.86
			l-0.13-2.09l-0.3-2.78l-0.33-2.7l-0.51-2.99l-0.32-1.77l0.06-0.48l4.35-1.47h1.59l-0.03,0.11l-0.04,0.27l-0.07,0.42l-0.03,0.33
			l-0.02,0.29l0,0.54l0.03,0.55l0.04,0.79l0.04,0.98l0.06,1.21l0.08,1.52l0.05,1.03l0.26,4.39l0.46,8.71l0.15,4.43v1.37l-0.17,2.2
			c0,0-0.4,3.44-0.4,3.59c0,0.15-0.42,3.6-0.42,3.6l1.58-0.9l2.65-1.64l3.59-2.42l2.52-2.04l2.16-1.89l2.77-2.67l2.44-2.77
			l1.81-2.27l2.24-3.12l1.46-2.36l1.81-3.1l1.49-2.94l1.51-3.44l1.32-3.09l1.45-3.9l1.28-4.22l1.2-3.99l0.61-2.29l0.63-2.33
			l0.5-1.95l0.16-0.72l-1.15-1.58l0.44-0.39l0.96-0.05l4.49-0.96l1.11,0.18l0.08,0.31l-0.13,0.21l-0.1,0.29l-0.13,0.45l-8.52,30.33
			l-0.78,1.77l0.64,4.66l-1.19,0.17l-0.45,0.06l-0.36,0.02l-0.35-0.01l-0.42,0.05l-0.52,0.05l-0.52,0.1l-0.73,0.22l-0.37,0.14
			l-0.32,0.14l-0.26,0.15l-0.55,0.38l-0.39,0.35l-0.31,0.29l-0.38,0.43l-0.27,0.32l-0.6,0.88l-0.9,1.37l-1.28,1.83l-1.73,2.21
			l-1.38,1.65l-2.12,2.37l-2.16,2.1l-3.29,2.81l-1.48,1.09l-1.02,0.71l-1.48,0.98l-2.04,1.21l-1.81,0.97l-1.52,0.71l-1.32,0.58
			l-0.68,0.29l-0.66,0.27l-0.7,0.37l-0.47,0.34l-0.43,0.34l-0.23,0.23l-0.47,0.53l-0.31,0.37l-0.52,0.18l-5.55,8.94l0.74,3.74
			l-0.27,0.54l-0.3,0.58l-0.29,0.51l-0.43,0.8l-0.52,0.9l-0.74,1.24l-0.82,1.26l-0.79,1.19l-1.25,1.8l-1.11,1.42l-1.24,1.51
			l-1.04,1.2l-0.69,0.73l-1.8,0.83l-8.39,1.98L258.96,207.94z"/>
		<polygon class="st2" points="249.78,164.07 249.68,164.39 249.61,164.82 249.56,165.26 249.55,165.79 249.58,166.41 
			249.69,167.17 249.78,167.56 248.88,167.88 245.96,168.61 243.76,168.72 243.61,168.72 243.57,168.65 243.51,168.41 
			244.95,167.23 246.56,166.13 249,163.87 		"/>
		<polygon class="st1" points="282.44,180.59 282.3,180.8 282.19,180.99 282.03,181.27 281.86,181.62 281.73,181.9 281.54,182.4 
			281.24,183.3 280.94,184.19 280.5,185.47 280.04,186.7 279.71,187.58 279.31,188.57 278.81,189.73 277.96,191.64 277.41,192.77 
			277.11,193.37 276.94,193.71 274.7,190.82 276.08,189.1 277.74,185.32 279.76,181.8 281.6,179.07 282.37,179.83 		"/>
		<polygon class="st1" points="362.47,105.41 358.27,105.75 358.19,106.11 357.6,108.13 356.82,110.53 356.09,112.56 355.28,114.61 
			354.46,116.53 353.27,119.07 352.19,121.19 350.66,123.92 349.51,125.79 348.45,127.4 347.54,128.71 346.05,130.72 344.97,132.07 
			343.54,133.75 342.53,134.85 341.48,135.94 340.34,137.06 338.69,138.56 337.02,139.95 335.39,141.18 333.35,142.56 331.5,143.65 
			330.63,144.12 329.55,144.65 328.71,145.03 327.08,145.69 325.52,146.21 323.91,146.64 322.27,146.97 320.44,147.19 
			319.26,147.25 318.64,147.26 317.95,147.24 317.62,147.22 315.77,148.2 317.12,151.96 317.36,153.65 318.11,153.52 319.88,153.13 
			321.31,152.76 323.46,152.12 325.7,151.37 328.09,150.46 329.74,149.77 331.39,149.02 332.65,148.41 334.07,147.67 335.55,146.83 
			337.77,145.46 339.39,144.34 340.63,143.42 342,142.3 342.63,141.75 343.15,141.26 343.76,140.65 344.37,139.99 346.2,137.86 
			347.34,136.43 347.72,135.91 345.29,135.27 349.03,134.11 349.3,133.71 349.78,133 351.23,130.75 352.38,128.82 354.23,125.4 
			355.75,122.28 356.5,120.6 357.36,118.79 357.99,117.5 359.15,115.14 359.98,113.3 360.44,112.28 360.87,111.43 361.37,110.58 
			361.83,109.92 362.53,109.04 363.23,108.3 363.94,107.64 364.53,107.15 365.35,106.55 365.62,106.37 366,106.3 366.12,105.35 		
			"/>
		<path class="st2" d="M287.15,481.57l0.76-1.53c-0.04-0.02-0.08-0.05-0.27-0.1L287.15,481.57z"/>
		<path class="st2" d="M287.86,483.7c0.11-0.05,0.23-0.1,0.36-0.19l-1.12-1.64l0.42,1.94c0.09-0.02,0.19-0.05,0.31-0.09
			C287.84,483.71,287.85,483.71,287.86,483.7z"/>
		<path class="st2" d="M287.09,481.86l-1.03-1.7c-0.03,0.02-0.06,0.03-0.09,0.05L287.09,481.86z"/>
		<polygon class="st2" points="287.1,481.99 287.1,481.99 287.1,483.85 		"/>
		<path class="st2" d="M287.86,483.7c-0.01,0-0.02,0.01-0.03,0.01C287.84,483.71,287.85,483.71,287.86,483.7z"/>
		<path class="st2" d="M286.98,482.53l-0.47,1.23c0.01,0,0.04,0.02,0.18,0.05L286.98,482.53z"/>
		<path class="st2" d="M288.12,483.57l0.09-0.06c-0.13,0.09-0.25,0.14-0.36,0.19C287.94,483.67,288.03,483.62,288.12,483.57z"/>
		<path class="st2" d="M287.1,483.85c0.1,0,0.24-0.01,0.42-0.05l-0.42-1.92v0.09l0,0V483.85z"/>
		<path class="st2" d="M287.1,481.99l-0.41,1.82c0.08,0.02,0.18,0.04,0.41,0.04L287.1,481.99z"/>
		<polygon class="st2" points="414.84,509.53 414.83,509.53 414.83,509.53 		"/>
		<path class="st2" d="M404.03,512.29l0-2l-0.07,0c-0.03,0-0.07,0-0.07,0L404.03,512.29z"/>
		<polygon class="st2" points="287.63,480.62 287.94,480.06 287.91,480.04 		"/>
		<path class="st2" d="M297.09,487.36l1-1.73c0,0-0.04-0.02-0.06-0.03l-0.06-0.03L297.09,487.36z"/>
		<polygon class="st2" points="414.9,510.23 414.84,509.53 414.83,509.53 		"/>
		<path class="st2" d="M287.83,483.72c-0.11,0.05-0.22,0.07-0.31,0.09c-0.18,0.04-0.31,0.04-0.42,0.05c-0.23,0-0.33-0.03-0.41-0.04
			c-0.14-0.03-0.17-0.05-0.18-0.05l0,0c0.01,0,0.05,0.02,0.1,0.05c0.1,0.03,0.24,0.05,0.47,0.06
			C287.28,483.86,287.54,483.83,287.83,483.72z"/>
		<path class="st2" d="M427.15,510.08l-0.24-1.99c0,0-0.03,0-0.06,0.01l-0.06,0.01L427.15,510.08z"/>
		<path class="st2" d="M224.31,187.56c-0.02,0.04-0.04,0.09-0.06,0.17l1.83,0.61l-1.74-0.83c0,0,0,0.01-0.01,0.01
			C224.33,187.53,224.32,187.54,224.31,187.56z"/>
		<polygon class="st2" points="286.56,483.63 286.51,483.76 286.51,483.76 		"/>
		<path class="st2" d="M269.92,139.79c-0.08,0.04-0.2,0.1-0.37,0.24l0,0l1.2,1.41l-0.17-0.33l0,0L269.92,139.79z"/>
		<polygon class="st2" points="270.58,141.12 270.05,139.73 269.92,139.79 		"/>
		<polygon class="st2" points="269.55,140.04 269.55,140.04 269.55,140.04 		"/>
		<polygon class="st2" points="306.41,120.69 305.51,118.91 305.49,118.92 305.48,118.93 		"/>
		<path class="st2" d="M334.61,107.08l-0.04,0.01l0.52,1.93l-0.44-1.95C334.65,107.07,334.64,107.08,334.61,107.08z"/>
		<path class="st2" d="M269.67,139.94l-0.12,0.1c0.18-0.15,0.3-0.21,0.37-0.24l0.13-0.06l0,0c-0.03,0.01-0.09,0.03-0.17,0.06
			l-0.14,0.1L269.67,139.94z"/>
		<polygon class="st2" points="269.55,140.04 270.75,141.45 269.55,140.04 		"/>
		<polygon class="st2" points="270.58,141.12 270.58,141.12 269.92,139.79 		"/>
		<polygon class="st2" points="224.34,187.5 225.61,188.11 224.37,187.43 224.34,187.5 		"/>
		<path class="st2" d="M224.37,187.43l-0.01,0.02c0,0,0,0,0,0.01c-0.01,0.01-0.01,0.03-0.02,0.04L224.37,187.43z"/>
		<path class="st2" d="M240.92,169.11l-1.58-1.22c0,0-0.01,0.02-0.02,0.03c-0.02,0.03-0.04,0.06-0.05,0.07L240.92,169.11z"/>
		<polygon class="st2" points="224.34,187.5 224.34,187.5 224.34,187.5 		"/>
		<path class="st2" d="M224.33,187.51c0,0,0-0.01,0.01-0.01l0,0C224.33,187.51,224.33,187.51,224.33,187.51z"/>
		<path class="st2" d="M224.25,187.73c0.03-0.08,0.05-0.13,0.06-0.17C224.3,187.59,224.28,187.63,224.25,187.73z"/>
		<path class="st2" d="M224.31,187.56c0.01-0.02,0.01-0.03,0.02-0.04C224.32,187.53,224.32,187.54,224.31,187.56z"/>
		<polygon class="st2" points="241.49,169.5 242.57,170.25 242.58,170.23 		"/>
		<polygon class="st2" points="272.13,143.09 271.12,141.89 272.13,143.09 		"/>
		<polygon class="st2" points="324.12,113.67 323.96,113.35 324.11,113.67 		"/>
		<polygon class="st2" points="323.59,112.54 324.04,113.7 324.11,113.67 		"/>
		<path class="st2" d="M286.23,130.95l0.91,1.78l0.12-0.06c0.07-0.05,0.11-0.07,0.11-0.07L286.23,130.95z"/>
		<polygon class="st2" points="324.11,113.67 323.96,113.35 323.96,113.35 		"/>
		<polygon class="st2" points="272.13,143.09 272.13,143.09 272.13,143.09 		"/>
		<path class="st2" d="M272.05,143.15L272.05,143.15l0.08-0.06C272.1,143.12,272.08,143.13,272.05,143.15z"/>
		<path class="st2" d="M286.05,480.15L286.05,480.15c0.1-0.05,0.19-0.1,0.27-0.13C286.24,480.05,286.15,480.09,286.05,480.15z"/>
		<polygon class="st2" points="323.85,113.21 324.03,113.71 324.04,113.7 		"/>
		<polygon class="st2" points="324.11,113.67 324.12,113.67 324.11,113.67 323.96,113.35 323.96,113.35 323.59,112.54 
			324.11,113.67 324.04,113.7 324.03,113.71 324.07,113.7 324.08,113.69 		"/>
		<polygon class="st2" points="435.51,98.99 435.36,100.46 435.38,100.46 		"/>
		<path class="st2" d="M447.28,99.88l-0.31,1.98l0.03,0.01c0.01,0,0.04,0,0.04,0L447.28,99.88z"/>
		<polygon class="st2" points="287.52,483.8 287.52,483.8 287.52,483.81 		"/>
		<path class="st7" d="M590.07,167.69L590.07,167.69l-2.93-3.56l-0.19-0.2l-11.75-10.79l-0.15-0.13l-16.41-12.3l-0.12-0.09
			l-16.9-10.78l-0.14-0.08l-19.81-10.44l-0.19-0.09l-26.98-10.73l-0.22-0.07l-28.14-7.59l-0.21-0.04l-18.34-2.88l-0.07-0.01
			c0,0-2.87-0.35-5.78-0.7c-1.45-0.17-2.91-0.35-4.02-0.48c-0.56-0.07-1.02-0.12-1.36-0.16c-0.17-0.02-0.3-0.04-0.4-0.05l-0.12-0.01
			l-0.1-0.01c-0.11-0.01-0.1-0.01-0.13-0.01c-0.15,0-0.5-0.01-1.1-0.02c-4.11-0.07-18.39-0.3-18.39-0.3l-0.11,0l-18.48,0.75
			l-0.11,0.01l-23.53,2.23l-0.06,0.01l-18.79,2.4l-0.27,0.05l-20.14,5.48c0.03-0.01,0.04-0.01,0.04-0.01l0.44,1.95l-0.52-1.93
			l0.04-0.01c-0.35,0.08-2.92,0.66-5.59,1.28c-1.43,0.33-2.89,0.68-4.05,0.96c-0.58,0.14-1.09,0.27-1.49,0.38
			c-0.2,0.05-0.38,0.1-0.53,0.15l-0.23,0.07c-0.08,0.03-0.16,0.06-0.28,0.11c-0.11,0.05-0.21,0.1-0.38,0.19
			c-1.23,0.63-5.35,2.79-9.19,4.81c-3.77,1.98-7.23,3.81-7.36,3.87l0.01-0.01l0.91,1.78l-0.93-1.77c0,0,0.01,0,0.01-0.01
			l-20.17,10.25l-0.23,0.13c0,0-3.79,2.6-7.6,5.23c-1.91,1.31-3.82,2.63-5.28,3.64c-0.73,0.5-1.34,0.93-1.78,1.23
			c-0.22,0.15-0.4,0.28-0.53,0.37l-0.03,0.02c0.08-0.03,0.14-0.05,0.17-0.06l0,0l0.53,1.38l0.17,0.33l-1.2-1.41h0l0,0c0,0,0,0,0,0
			l0.12-0.1l0.07-0.05l0.14-0.1c-0.08,0.03-0.19,0.07-0.31,0.12c-0.84,0.34-2.26,1.07-4.69,2.91c-2.44,1.85-5.92,4.83-10.93,9.75
			c-6.26,6.15-9.89,9.95-11.97,12.23c-1.85,2.03-2.47,2.86-2.65,3.11c0.01-0.01,0.02-0.03,0.02-0.03l1.58,1.22l-1.66-1.12
			c0.01-0.02,0.03-0.04,0.05-0.07c-0.24,0.31-3.78,4.89-7.34,9.51c-1.84,2.39-3.69,4.79-5.08,6.61c-0.7,0.91-1.28,1.67-1.69,2.22
			c-0.21,0.27-0.37,0.49-0.49,0.66l-0.15,0.21l-0.07,0.11l-0.06,0.1l-0.06,0.11c0,0,0,0,0,0c0,0,0,0,0-0.01l0.01-0.02l1.23,0.68
			l-1.27-0.61l1.74,0.83l-1.83-0.61c0.03-0.09,0.05-0.14,0.06-0.17c0.01-0.02,0.01-0.03,0.02-0.04c0,0,0-0.01,0.01-0.01l0-0.01
			c0.01-0.01,0.02-0.03,0.02-0.04c-0.06,0.11-0.27,0.45-0.56,0.92c-1.02,1.66-3.12,5.02-4.96,7.96c-0.92,1.47-1.78,2.84-2.4,3.84
			s-1.02,1.63-1.02,1.63l-0.05,0.08l-9.69,17.19l-0.1,0.21l-5.96,14.21l-0.06,0.16l-6.19,19.25l-0.06,0.23l-3.59,18.25l-0.02,0.14
			l-2.31,18.41l-0.01,0.16l-0.59,13.98l0,0.17l0.59,14.43l0,0.07l0.83,11.15l0.02,0.14l2.25,15.58l0.04,0.21l4.35,17.11l0.04,0.13
			l5.22,15.96l0.05,0.14l5.54,13.44l0.06,0.14l4.74,9.39l0.05,0.09l8.63,15.05l0.12,0.18l12.45,17.11l0.11,0.14l14.74,16.95
			l0.17,0.17l19.78,17.79l0.15,0.13c0,0,4.69,3.44,9.43,6.88c2.37,1.72,4.76,3.44,6.58,4.74c0.91,0.65,1.69,1.19,2.26,1.58
			c0.29,0.2,0.52,0.35,0.72,0.48c0.1,0.06,0.19,0.12,0.3,0.18c0.06,0.03,0.12,0.06,0.23,0.11c0.06,0.02,0.12,0.05,0.23,0.08
			c0.03,0.01,0.07,0.02,0.11,0.03c-0.05-0.02-0.09-0.04-0.1-0.05l0.05-0.12l-0.05,0.12l0.47-1.23l-0.29,1.28l0.41-1.82v-0.09
			l0.42,1.91l-0.42-1.93l1.12,1.64l-0.09,0.06c-0.09,0.05-0.18,0.1-0.27,0.13c-0.01,0-0.02,0.01-0.03,0.01
			c-0.11,0.04-0.21,0.07-0.31,0.09l0,0.01l0-0.01c-0.16,0.04-0.32,0.06-0.44,0.06c-0.23,0-0.37-0.03-0.47-0.06
			c0.11,0.05,0.3,0.14,0.53,0.26c1.19,0.62,3.46,1.88,5.39,2.98c0.97,0.55,1.86,1.06,2.51,1.43s1.05,0.61,1.05,0.61l0.12,0.06
			l21.08,10.39l0.25,0.1l21.38,7.1l0.17,0.05l22.53,5.35l0.28,0.05l23.52,2.12l0.18,0.01l18.42-0.02l0.14,0c0,0,2.65-0.18,5.35-0.37
			c1.35-0.09,2.71-0.19,3.76-0.26c0.52-0.04,0.97-0.07,1.3-0.09c0.33-0.02,0.52-0.04,0.61-0.04c0.08-0.01,0.13-0.01,0.25-0.03
			c1.63-0.18,11.95-1.42,11.96-1.42l0.13-0.02l15.02-2.79l0.17-0.04l15.61-4.3l0.13-0.04l17.58-6.11l0.28-0.12l19.6-10.35l0.12-0.07
			l12.11-7.55l0.1-0.07l11.29-8.02l0.14-0.11l15.51-13.16l0.12-0.11l16.84-16.72l0.13-0.14l3.93-4.7c0.09-0.11,0.19-0.25,0.25-0.38
			l1.55-3.08c0.5-0.99-0.49-3.08-0.88-2.69c-3.07,3.07-2.19-0.1-2.69,0.88l-1.45,2.87l-3.72,4.46l-16.72,16.6l-15.38,13.05
			l-11.17,7.94l-11.99,7.48l-19.4,10.25l-17.37,6.04l-15.46,4.26l-14.87,2.76c0.04,0,0.06-0.01,0.06-0.01l0.24,1.99l-0.36-1.97
			l0.06-0.01c-0.19,0.02-0.85,0.1-1.78,0.21c-1.66,0.2-4.17,0.5-6.29,0.75c-1.06,0.13-2.03,0.24-2.74,0.32
			c-0.36,0.04-0.66,0.08-0.87,0.1c-0.11,0.01-0.19,0.02-0.25,0.03l-0.07,0.01l-0.01,0c0,0,0.01,0,0.01,0l0.06,0.7l-0.07-0.7l0,0
			c-0.02,0-0.24,0.02-0.54,0.04c-1.14,0.08-3.74,0.26-6.05,0.42c-2.11,0.15-3.95,0.27-4.28,0.3l0.07,0l0,2l-0.14-2
			c0,0,0.04,0,0.07,0l-18.26,0.02l-23.29-2.1l-22.31-5.29l-21.17-7.03l-20.9-10.3c0.02,0.01,0.06,0.03,0.06,0.03l-1,1.73l0.88-1.79
			l0.06,0.03c-0.29-0.17-2.49-1.44-4.78-2.73c-1.23-0.69-2.47-1.38-3.45-1.91c-0.49-0.26-0.92-0.49-1.26-0.66
			c-0.17-0.09-0.33-0.16-0.48-0.22c-0.08-0.03-0.16-0.07-0.27-0.1c0.08,0.05,0.13,0.08,0.15,0.09l-0.32,0.56l0.28-0.57l-0.76,1.53
			l0.49-1.63l-0.56,1.87v0.04l-1.02-1.69l1.03,1.7l-1.12-1.65c0.03-0.02,0.06-0.03,0.09-0.05l0-0.01c0.09-0.05,0.18-0.1,0.27-0.13
			c0.04-0.02,0.07-0.03,0.11-0.04c0.07-0.03,0.15-0.05,0.21-0.07c0.01,0,0.02-0.01,0.03-0.01c0.19-0.04,0.32-0.05,0.43-0.05
			c0.25,0,0.37,0.03,0.47,0.05c0.1,0.02,0.16,0.04,0.22,0.06c0,0,0,0,0,0c-0.06-0.04-0.14-0.09-0.23-0.15
			c-0.78-0.52-2.35-1.63-4.24-2.98c-2.83-2.03-6.39-4.62-9.24-6.69c-1.42-1.04-2.67-1.95-3.56-2.6c-0.71-0.52-1.18-0.86-1.34-0.99
			l0.07,0.07l-1.34,1.49l1.18-1.61c0,0,0.04,0.03,0.08,0.06l-19.61-17.65l-14.6-16.8l-12.33-16.95l-8.55-14.9l-4.68-9.28l-5.49-13.3
			l-5.18-15.83l-4.31-16.94l-2.22-15.41l-0.82-11.05l-0.59-14.32l0.58-13.81l2.29-18.26l3.55-18.07l6.12-19.05l5.88-14.02
			l9.61-17.05c-0.02,0.02-0.02,0.04-0.02,0.04l-1.69-1.06l1.74,0.98l-0.02,0.04c0.24-0.38,2.35-3.74,4.46-7.13
			c1.12-1.8,2.25-3.61,3.1-4.98c0.43-0.69,0.78-1.27,1.04-1.68c0.13-0.21,0.23-0.38,0.31-0.51l0.1-0.17l0.01-0.02
			c-0.01,0.02-0.04,0.05-0.04,0.05l-0.42-0.29l0.42,0.28l-1.09-0.73l-0.45-0.28l-0.12-0.06l1.87,0.62
			c-0.03,0.09-0.05,0.14-0.07,0.17c0,0,0,0,0,0c-0.01,0.03-0.02,0.05-0.03,0.06l-0.04,0.08l-0.04,0.08c0.04-0.05,0.1-0.14,0.2-0.27
			c1.04-1.4,4.67-6.12,8.01-10.45c1.67-2.17,3.28-4.25,4.47-5.79c1.19-1.54,1.96-2.53,1.96-2.54l0.06-0.09l-1.07-0.75l1.08,0.73
			l-0.01,0.02l0,0c0.05-0.07,0.68-0.92,2.75-3.17c2.07-2.25,5.58-5.91,11.43-11.65c6.19-6.07,9.93-9.06,12.07-10.51
			c1.07-0.72,1.72-1.06,2.08-1.22c0.18-0.08,0.29-0.12,0.39-0.15c0.05-0.02,0.1-0.03,0.2-0.07c0.05-0.02,0.12-0.05,0.22-0.1
			c0.08-0.04,0.2-0.11,0.35-0.22l-0.93-1.26l1.01,1.2h0l0,0c0,0,0,0,0,0l-0.08,0.06c0,0,0.11-0.08,0.24-0.17
			c1.07-0.75,4.85-3.35,8.34-5.76c1.75-1.2,3.43-2.36,4.67-3.21c0.99-0.68,1.69-1.16,1.94-1.33l-0.12,0.06l-0.91-1.78l1.13,1.65
			c0,0-0.04,0.03-0.11,0.07l20.07-10.2l0.03-0.01c0,0,1-0.53,2.52-1.33c2.28-1.2,5.72-3.01,8.66-4.55c1.47-0.77,2.81-1.47,3.83-2
			c0.51-0.26,0.93-0.48,1.24-0.64c0.16-0.08,0.28-0.15,0.38-0.19l0.1-0.05l-0.04,0.01l-0.18-0.5l0.19,0.49l-0.45-1.16l0.38,0.81
			l0.15,0.32l-0.01,0l-0.03,0.01l-0.01,0.01l0.02-0.01c0.14-0.05,0.47-0.14,0.89-0.25c1.48-0.38,4.13-1,6.4-1.53
			c1.13-0.26,2.17-0.5,2.93-0.67c0.76-0.17,1.23-0.28,1.23-0.28l0.09-0.02l20.05-5.45l18.62-2.38l23.44-2.22l18.37-0.74
			c-0.04,0-0.06,0-0.06,0l0.03-2l0.08,2l-0.06,0c0.26,0,1.37,0.02,2.95,0.05c2.71,0.04,6.78,0.11,10.2,0.16
			c1.71,0.03,3.25,0.05,4.38,0.07c0.56,0.01,1.02,0.02,1.34,0.02c0.16,0,0.29,0.01,0.37,0.01l0.06,0c-0.01,0-0.03,0-0.04-0.01
			l-0.01,0l0.15-1.47l0.02-0.19l-0.07,1.67l-0.01,0l-0.04,0c0.22,0.03,1.01,0.12,2.07,0.25c1.69,0.2,4.08,0.49,6.05,0.73
			c1.84,0.22,3.29,0.4,3.47,0.42l-0.03-0.01l0.31-1.98l-0.24,1.99c0,0-0.02,0-0.04,0l18.2,2.86l27.93,7.53l26.77,10.65l19.64,10.35
			l16.77,10.7l16.27,12.2l11.57,10.63l2.84,3.45c0.7,0.85,2.03,1.05,2.82,0.27C591.27,169.04,590.78,168.54,590.07,167.69z"/>
		<path class="st2" d="M435.46,100.47l-0.08-0.01l-0.02,0l0.01,0c0.01,0,0.03,0,0.04,0.01l0.04,0L435.46,100.47z"/>
		<path class="st2" d="M416.08,98.15l-0.03,2c0,0,0.02,0,0.06,0l0.06,0L416.08,98.15z"/>
		<polygon class="st2" points="435.38,100.46 435.46,100.47 435.53,98.8 435.51,98.99 435.51,98.99 		"/>
		<polygon class="st2" points="435.51,98.99 435.51,98.99 435.38,100.46 		"/>
		<path class="st2" d="M272.13,143.09l-1.01-1.2l0.93,1.26C272.08,143.13,272.1,143.12,272.13,143.09L272.13,143.09z"/>
		<polygon class="st2" points="227.4,189.15 227.82,189.44 227.83,189.44 		"/>
		<path class="st2" d="M267.92,468.11l1.34-1.49l-0.07-0.07c-0.04-0.03-0.08-0.06-0.08-0.06L267.92,468.11z"/>
		<path class="st2" d="M287.57,479.91c-0.1-0.02-0.22-0.05-0.47-0.05c-0.11,0-0.25,0.01-0.43,0.05c-0.01,0-0.02,0.01-0.03,0.01
			c0.17-0.04,0.32-0.05,0.44-0.05c0.32,0.01,0.45,0.05,0.56,0.08c0.19,0.06,0.23,0.09,0.27,0.1l0.03,0.02
			c-0.01-0.01-0.07-0.04-0.15-0.09c0,0,0,0,0,0C287.73,479.95,287.67,479.93,287.57,479.91z"/>
		<path class="st2" d="M217.12,202.86l1.69,1.06c0,0,0.01-0.01,0.02-0.04l0.02-0.04L217.12,202.86z"/>
		<path class="st2" d="M287.08,481.81l0.56-1.87c-0.1-0.03-0.23-0.08-0.56-0.08V481.81z"/>
		<path class="st2" d="M286.64,479.91c-0.06,0.01-0.14,0.04-0.21,0.07c-0.04,0.01-0.07,0.02-0.11,0.04
			c-0.08,0.03-0.17,0.09-0.26,0.14l1.02,1.69v-0.04v-1.95C286.96,479.86,286.81,479.87,286.64,479.91z"/>
		<path class="st2" d="M286.32,480.01c0.04-0.02,0.07-0.03,0.11-0.04C286.39,479.99,286.36,480,286.32,480.01z"/>
		<path class="st2" d="M286.43,479.97c0.08-0.03,0.15-0.05,0.21-0.07C286.57,479.92,286.5,479.95,286.43,479.97z"/>
		<path class="st2" d="M228.04,188.99c-0.03,0.08-0.05,0.13-0.07,0.17C227.99,189.13,228.01,189.08,228.04,188.99z"/>
		<polygon class="st2" points="226.74,188.71 226.74,188.71 227.85,189.4 		"/>
		<polygon class="st2" points="242.57,170.25 242.57,170.25 242.58,170.23 		"/>
		<path class="st2" d="M227.85,189.4c0.01-0.02,0.03-0.05,0.08-0.14l-1.64-0.83l0.45,0.28l0,0L227.85,189.4z"/>
		<path class="st2" d="M227.94,189.23c0.01-0.02,0.02-0.04,0.03-0.06c-0.02,0.04-0.03,0.07-0.04,0.09
			c-0.05,0.09-0.07,0.12-0.08,0.14l-0.02,0.04l0,0c0,0,0.02-0.03,0.04-0.05l0.04-0.08L227.94,189.23z"/>
		<polygon class="st2" points="226.74,188.71 227.83,189.44 227.85,189.4 		"/>
		<path class="st2" d="M227.97,189.16C227.97,189.16,227.97,189.16,227.97,189.16C227.97,189.16,227.97,189.16,227.97,189.16z"/>
		<polygon class="st2" points="226.29,188.43 226.29,188.43 227.93,189.26 		"/>
		<path class="st2" d="M227.93,189.26c0.01-0.03,0.03-0.05,0.04-0.09c0,0,0,0,0,0c0.02-0.04,0.04-0.1,0.07-0.17l-1.87-0.62
			l0.12,0.06l0,0L227.93,189.26z"/>
		<path class="st2" d="M341.97,135.43l0.26-0.27l0.4-0.42l0.44-0.48l0.24-0.27l0.31-0.32v-0.38l-1.89,0.64c0,0-0.77,0.11-0.87,0.23
			s-0.98,1.62-1,1.76c-0.02,0.14,0.89,0.75,0.89,0.75l0.17-0.17l0.19-0.19l0.22-0.22l0.2-0.2l0.16-0.16l0.11-0.11L341.97,135.43z"/>
		<path class="st1" d="M549.07,426.07c0,0,4.31,7.38,3.86,9.19c-0.45,1.81,2.25-0.58,2.25-0.58l-1.82-3.87L549.07,426.07z"/>
		<path class="st1" d="M555.26,432.85c0,0,2.39,2.09,1.34,4.03l-0.19,0.38l-1.07-0.33l-0.21-3.94L555.26,432.85z"/>
	</g>
	<path class="st1" d="M330.92,239.26c2.06,6.24,0.94,12.28-0.18,15.91c-1.22-0.21-2.43-0.49-3.63-0.85
		C330.24,248.22,330.92,239.26,330.92,239.26z"/>
	<path class="st1" d="M324.92,252.52c-1.14-0.51-2.25-1.09-3.3-1.73c-0.91,2.06-1.26,3.49-1.26,3.49l4.49,4.3
		C324.27,256.8,324.4,254.69,324.92,252.52z"/>
	<path class="st1" d="M326.33,235.79c3.42,7.82,1.47,15.8,0.63,18.48c-1.3-0.4-2.58-0.87-3.83-1.4
		C326.53,246.57,326.33,235.79,326.33,235.79z"/>
	<path class="st1" d="M328.71,254.91c0.04-0.29,0.09-0.58,0.16-0.88c-1.29-0.42-2.57-0.9-3.81-1.45c-0.25,0.58-0.37,0.92-0.37,0.92
		l1.18,1.36C326.83,254.76,327.78,254.79,328.71,254.91z"/>
	<path class="st1" d="M326.01,255.05l2.74,3.17c-0.2-0.87-0.21-1.8-0.11-2.75C327.79,255.28,326.92,255.12,326.01,255.05z"/>
	<path class="st8" d="M328.71,254.91c-0.93-0.12-1.87-0.15-2.85-0.04l0.15,0.18c0.91,0.07,1.78,0.23,2.63,0.41
		C328.66,255.28,328.68,255.09,328.71,254.91z"/>
	<path class="st8" d="M328.39,254.87c-0.09,0.17-0.17,0.33-0.25,0.48c0.63,0.13,1.25,0.27,1.87,0.41c0.09-0.19,0.18-0.39,0.27-0.58
		C329.66,255.05,329.03,254.94,328.39,254.87z"/>
	<path class="st1" d="M327.11,257.66l1.84,2.5c-0.04-1.38,0.37-2.88,1.06-4.39c-0.62-0.14-1.23-0.28-1.87-0.41
		C327.43,256.75,327.11,257.66,327.11,257.66z"/>
	<path class="st1" d="M330.6,254.57c-0.58-0.17-1.16-0.35-1.74-0.54c-0.17,0.29-0.32,0.57-0.47,0.84c0.64,0.07,1.26,0.18,1.89,0.31
		C330.38,254.98,330.49,254.77,330.6,254.57z"/>
	<path class="st1" d="M332.6,265.1l-3.65-4.94C329.02,262.17,330.04,263.92,332.6,265.1z"/>
	<path class="st1" d="M321.79,237.81c2.48,5.66,2.07,11.41,1.36,15.07c-0.56-0.24-1.12-0.48-1.67-0.73
		C322.85,245.92,321.79,237.81,321.79,237.81z"/>
	<path class="st1" d="M326.84,249.09c0,0-2.74,0.92-4.7,2.02c3.5,2.02,7.52,3.34,11.39,4.2
		C333.25,253.38,331.99,250.25,326.84,249.09z"/>
	<path class="st1" d="M333.5,256.13c-0.01-0.23-0.03-0.49-0.07-0.78c-3.86-0.87-7.87-2.22-11.36-4.27
		c-0.96,0.55-1.73,1.14-1.91,1.69c-0.53,1.68,3.41,3.13,3.41,3.13l9.9,1.07c0,0,0.04-0.26,0.03-0.69c-2.92,0.02-5.44-1.28-8.6-1.28
		C328,254.37,330.7,255.33,333.5,256.13z"/>
	<path class="st1" d="M325,255c3.13,0,5.63,1.3,8.51,1.28c0-0.05,0-0.1,0-0.15C330.73,255.33,328.06,254.37,325,255z"/>
	<path class="st1" d="M555.79,431.32l-1.78,2.42l-0.57-1.02c0,0,0.12-1.53,0.15-1.54C553.61,431.18,555.79,431.32,555.79,431.32z"/>
	<path class="st1" d="M456.72,321.73"/>
	<path class="st1" d="M456.72,324.36"/>
	<path class="st1" d="M476.08,334.12l-1.83-1.84l-1.51-1.88l-1.51-2.18c0,0-12.32-6.7-13.16,3.79l0.62,3.07l0.65,2.97l1.29,4.58
		l1.52,3.49l1.65,2.06l12.84-1.18l1.79-6.72L476.08,334.12z"/>
	<path class="st1" d="M459.87,315.25c-4.27,9.55-0.48,19.42-0.48,19.42l6.15,0.95C459.45,331.04,459.87,315.25,459.87,315.25z"/>
	<path class="st1" d="M471.46,336.54l-5.92-0.92C467.07,336.77,469,337.23,471.46,336.54z"/>
	<path class="st1" d="M464.79,312.28c-5.15,9.11-2.29,19.29-2.29,19.29l6.03,1.52C462.89,327.96,464.79,312.28,464.79,312.28z"/>
	<path class="st1" d="M474.33,334.55l-5.81-1.47C469.94,334.38,471.82,335.01,474.33,334.55z"/>
	<path class="st1" d="M466.87,333.58c0,0-2.79-9.94,2.24-18.83c0,0-2.92,23.97,9.32,21.75"/>
	<path class="st1" d="M461.74,326.62c0,0-3.89,5.25-3.36,6.93c0.52,1.68,4.64,0.57,4.64,0.57l8.89-4.92
		C471.91,329.2,469.12,323.59,461.74,326.62z"/>
	<path class="st1" d="M461.55,326.47c-5.13,1.23-3.27,6.55-3.27,6.55l5.53-3.4C463.81,329.62,466.68,325.23,461.55,326.47z"/>
	<path class="st1" d="M554.01,433.74c0,0,1.77,2.1,0.65,3.52s-1.56-3.06-1.56-3.06L554.01,433.74z"/>
	<polygon class="st1" points="556.73,433.28 556.27,434.06 555.54,435.52 555.15,436.3 554.97,436.64 555.03,436.34 555.03,436.06 
		555.01,435.8 554.96,435.58 554.89,435.32 554.81,435.09 554.69,434.82 554.55,434.55 554.35,434.21 554.19,433.98 554.06,433.8 
		554.01,433.74 553.97,432.94 554.49,431.54 555.7,431.1 	"/>
	<path class="st2" d="M341.96,133.56c0,0-2.65,3.02-3.06,3.21c-0.4,0.19-1.83-0.86-1.83-0.86s2.01-3.11,2.07-3.14
		C339.21,132.73,341.96,133.56,341.96,133.56z"/>
	<polygon class="st1" points="558.45,434.21 578.81,397.98 576.75,397.98 555.7,431.1 	"/>
	<polygon class="st1" points="578.81,397.98 579.99,395.11 576.11,398.99 	"/>
	<path class="st1" d="M586.88,163.63c0,0,2.4,11.17,0.76,11.68c-1.65,0.51-1.58-0.52-1.58-0.52l0.44-2.36L586.88,163.63z"/>
	<path class="st1" d="M568.15,148.66l22.98,19.65c0,0,4.67,12.86-7.41,7.14c-12.09-5.73-12.37-8.03-12.37-8.03l-10.15-10.09
		l-1.72-4.3L568.15,148.66z"/>
	<polygon class="st1" points="439.74,99.63 432,97.43 412.04,97.64 412.85,100.29 436.89,101.87 	"/>
</g>
<g id="oeil_projet">
	<path class="st2" d="M479.87,236.14c0,0,21.28-21,30.64-7.15C519.87,242.83,479.87,236.14,479.87,236.14z"/>
	<path class="st6" d="M487.45,233.55c0,0,15.73-10.26,18.79-4.57l0.64,1.3c0.74,1.49,0,3.26-1.57,3.81
		c-2.89,1.01-20.89,1.33-17.77-0.61"/>
	<path class="st1" d="M495.9,229.05"/>
	<path class="st1" d="M496.27,228.89c0,0,6.54,6.83,7.5-1.51h-3.34L496.27,228.89z"/>
</g>
</svg>
