<svg width="100" height="100" viewBox="0 0 100 100" fill="none" xmlns="http://www.w3.org/2000/svg">
<circle cx="50" cy="50" r="50" fill="#7A1599"/>
<path d="M74.4194 31.7647H54.106L62.9112 23.3784L61.0377 21.5686L50.3324 31.7647L39.6271 21.5686L37.7269 23.3784L46.5588 31.7647H26.2454C23.3014 31.7647 20.8927 34.0333 20.8927 36.8628V67.451C20.8927 70.2549 23.3014 72.549 26.2454 72.549H74.4194C77.3634 72.549 79.7721 70.2549 79.7721 67.451V36.8628C79.7721 34.0333 77.3634 31.7647 74.4194 31.7647ZM74.4194 67.451H26.2454V36.8628H74.4194V67.451ZM42.3034 41.9608V62.3529L61.0377 52.1569L42.3034 41.9608Z" fill="white"/>
</svg>
