<svg width="100" height="100" viewBox="0 0 100 100" fill="none" xmlns="http://www.w3.org/2000/svg"> <circle cx="50" cy="50" r="50" fill="#7A1599"/> <path d="M62.5111 46.4986C67.9576 46.4986 72.3212 41.8067 72.3212 35.9944C72.3212 30.1821 67.9576 25.4902 62.5111 25.4902C57.0647 25.4902 52.6682 30.1821 52.6682 35.9944C52.6682 41.8067 57.0647 46.4986 62.5111 46.4986ZM36.2634 46.4986C41.7098 46.4986 46.0735 41.8067 46.0735 35.9944C46.0735 30.1821 41.7098 25.4902 36.2634 25.4902C30.817 25.4902 26.4205 30.1821 26.4205 35.9944C26.4205 41.8067 30.817 46.4986 36.2634 46.4986ZM36.2634 53.5014C28.6187 53.5014 13.2966 57.598 13.2966 65.7563V74.5098H59.2302V65.7563C59.2302 57.598 43.908 53.5014 36.2634 53.5014ZM62.5111 53.5014C61.5597 53.5014 60.4769 53.5714 59.3286 53.6765C63.1345 56.6177 65.7921 60.5742 65.7921 65.7563V74.5098H85.4779V65.7563C85.4779 57.598 70.1558 53.5014 62.5111 53.5014Z" fill="white"/> </svg>