<?xml version="1.0" encoding="utf-8"?>
<!-- Generator: Adobe Illustrator 26.0.1, SVG Export Plug-In . SVG Version: 6.00 Build 0)  -->
<svg version="1.1" id="Calque_1" xmlns="http://www.w3.org/2000/svg" xmlns:xlink="http://www.w3.org/1999/xlink" x="0px" y="0px"
	 viewBox="0 0 1920 1080" style="enable-background:new 0 0 1920 1080;" xml:space="preserve">
<style type="text/css">
	.st0{fill:#E4E4E4;}
	.st1{fill:#CCCBCB;}
	.st2{fill:#6E2E87;stroke:#1D1D1B;stroke-width:0.75;stroke-miterlimit:10;}
	.st3{fill:#FFBB00;}
	.st4{fill:#FFFFFF;}
</style>
<path class="st0" d="M1335.5,420h-168c-11.87,0-21.5,9.63-21.5,21.5v0c0,11.87,9.63,21.5,21.5,21.5h168c11.87,0,21.5-9.63,21.5-21.5
	v0C1357,429.63,1347.37,420,1335.5,420z"/>
<path class="st0" d="M727.5,588h-168c-11.87,0-21.5,9.63-21.5,21.5l0,0c0,11.87,9.63,21.5,21.5,21.5h168
	c11.87,0,21.5-9.63,21.5-21.5l0,0C749,597.63,739.37,588,727.5,588z"/>
<g>
	<path class="st1" d="M677,493.28c0,66.37,0,132.74,0,199.11c0,7.8,0,15.59,0,23.39c0.12,3.31,0.82,7.86,3.67,12
		c3.04,4.39,8.56,8.67,18.58,10.25c23.49,3.71,519.16,0,519.16,0s25.96,3.71,24.72-16.07c-1.24-19.78,0.04-381.95,0.04-381.95H677
		V493.28z"/>
	<path class="st0" d="M1243.13,721.95c0,0,8.65,15.83-24.72,16.07c-33.37,0.23-519.16,0-519.16,0S677,740.49,677,699.7
		l223.77-201.74l59.31,41.87l59.32-41.87l223.38,201.74"/>
	<polyline class="st2" points="1243.17,340 960.08,598.34 677,340 	"/>
</g>
<g>
	<circle class="st3" cx="618" cy="241" r="38"/>
	<circle class="st4" cx="618.5" cy="240.5" r="28.5"/>
</g>
<g>
	<path class="st3" d="M1374.94,245.81c-26.49,19.19-52.98,38.38-79.46,57.57l91.29,40.83
		C1382.82,311.41,1378.88,278.61,1374.94,245.81z"/>
	<path class="st4" d="M1368.77,261.13c-18.85,13.66-37.71,27.32-56.56,40.98l64.97,29.06
		C1374.38,307.82,1371.57,284.47,1368.77,261.13z"/>
</g>
<g>
	
		<rect x="539.5" y="711.5" transform="matrix(0.9365 -0.3506 0.3506 0.9365 -226.1222 250.0525)" class="st3" width="76" height="76"/>
	
		<rect x="552.64" y="724.29" transform="matrix(0.9365 -0.3506 0.3506 0.9365 -226.1841 250.2967)" class="st4" width="51" height="51"/>
</g>
<path class="st0" d="M568.5,362h-168c-11.87,0-21.5,9.63-21.5,21.5v0c0,11.87,9.63,21.5,21.5,21.5h168c11.87,0,21.5-9.63,21.5-21.5
	v0C590,371.63,580.37,362,568.5,362z"/>
<path class="st0" d="M1538.5,593h-222c-11.87,0-21.5,9.63-21.5,21.5l0,0c0,11.87,9.63,21.5,21.5,21.5h222
	c11.87,0,21.5-9.63,21.5-21.5l0,0C1560,602.63,1550.37,593,1538.5,593z"/>
<path class="st0" d="M939.5,777h-134c-11.87,0-21.5,9.63-21.5,21.5l0,0c0,11.87,9.63,21.5,21.5,21.5h134
	c11.87,0,21.5-9.63,21.5-21.5l0,0C961,786.63,951.37,777,939.5,777z"/>
<circle class="st0" cx="630.5" cy="384.5" r="21.5"/>
<circle class="st0" cx="1038.5" cy="286.5" r="21.5"/>
<circle class="st0" cx="749.5" cy="795.5" r="21.5"/>
<g>
	
		<rect x="1285.26" y="752.23" transform="matrix(0.7298 -0.6837 0.6837 0.7298 -157.5818 1117.7469)" class="st3" width="100" height="12"/>
	
		<rect x="1285.16" y="752.12" transform="matrix(-0.6837 -0.7298 0.7298 -0.6837 1694.6781 2250.821)" class="st3" width="100" height="12"/>
</g>
</svg>
