<?xml version="1.0" encoding="utf-8"?>
<!-- Generator: Adobe Illustrator 26.0.1, SVG Export Plug-In . SVG Version: 6.00 Build 0)  -->
<svg version="1.1" id="Calque_2_00000005974569124615549900000002689393444715287212_"
	 xmlns="http://www.w3.org/2000/svg" xmlns:xlink="http://www.w3.org/1999/xlink" x="0px" y="0px" viewBox="0 0 216.1 139.2"
	 style="enable-background:new 0 0 216.1 139.2;" xml:space="preserve">
<style type="text/css">
	.st0{fill:#520E66;}
	.st1{fill:#7A1699;}
	.st2{fill:#FFFFFF;}
	.st3{fill:#7A1599;}
</style>
<g>
	<path class="st0" d="M53.5,11.3c25-0.5,50.1-0.6,75.2-0.5c18.1,0.1,36.4,0.4,53.8,5.3c1,0.3,2.1,0.6,2.9,1.4c1.2,1.1,1.5,2.6,1.6,3
		c1,4.3,5.3,8.8,10.7,27.8c2.2,7.8,3.5,14.2,6,27c0.7,3.5,1.5,7.9,3,15c1.8,8.5,1.8,8,2,9.5c0.7,5.7,1.6,14.9-3.8,21.5
		c-3.3,4-8.7,5.9-13.9,6.2s-10.4-0.8-15.5-1.8c-6.1-1.3-12.1-2.6-18.1-3.8c-2.6-0.5-5.3-1.1-7.4-2.8c-5.8-4.5-4.1-13.7-8-19.9
		c-3.5-5.6-10.7-7.4-17.2-8.4c-5.1-0.8-10.3-1.3-15.5-1.5c-6.2-0.3-12.7-0.2-18.5,2.1s-11,7-12.3,13.1c-0.9,4.4,0,9.7-3.2,12.9
		c-1.6,1.6-4,2.2-6.2,2.8c-10.3,2.5-20.7,5-31,7.5c-6.2,1.5-13,3-18.9,0.6c-2.2-0.9-4.1-2.2-5.9-3.7c-2.2-1.8-4.4-3.8-5.6-6.3
		c-1-2.1-1.4-4.4-1.7-6.7c-0.5-3.2-1-6.4-1.2-9.7C4.3,94,6.2,86.2,8,78.5c2.6-10.9,5.2-21.8,7.9-32.6c1.6-6.5,3.2-13,6.3-18.9
		c2.8-5.1,7.3-10.5,12.7-13C40.3,11.2,47.6,11.4,53.5,11.3z"/>
	<rect x="50.1" y="35.2" class="st1" width="14.5" height="42.5"/>
	<rect x="110.1" y="63.7" class="st1" width="10" height="6"/>
	<rect x="95.1" y="63.8" class="st2" width="10" height="6"/>
	<circle class="st2" cx="158.1" cy="43.7" r="8"/>
	<circle class="st1" cx="143.1" cy="59.7" r="8"/>
	<circle class="st2" cx="159.1" cy="74.7" r="8"/>
	<circle class="st1" cx="174.1" cy="60.7" r="8"/>
	<rect x="35.9" y="48.6" class="st1" width="42.5" height="14.5"/>
	<path class="st3" d="M158.1,14.7c0,0,7.6,0.8,14,2c3.6,0.7,8.7,2,14.7,5.1c0-1.9-0.3-4.1-1.8-6c-1.9-2.4-5.3-3-11.9-4.1
		c-3.3-0.5-1.9-0.1-9-1c-4.5-0.6-6.9-1-10,0c-1.5,0.5-3.9,1.5-3.8,2.4C150.4,14,153.5,14.2,158.1,14.7z"/>
	<path class="st0" d="M171.1,17.7c1,0,2,0,3,0"/>
	<path class="st3" d="M54.6,14.7c0,0-7.6,0.8-14,2c-3.6,0.7-8.7,2-14.7,5.1c0-1.9,0.3-4.1,1.8-6c1.9-2.4,5.3-3,11.9-4.1
		c3.3-0.5,1.9-0.1,9-1c4.5-0.6,6.9-1,10,0c1.5,0.5,3.9,1.5,3.8,2.4C62.3,14,59.2,14.2,54.6,14.7z"/>
</g>
</svg>
