<?xml version="1.0" encoding="utf-8"?>
<!-- Generator: Adobe Illustrator 26.0.1, SVG Export Plug-In . SVG Version: 6.00 Build 0)  -->
<svg version="1.1" xmlns="http://www.w3.org/2000/svg" xmlns:xlink="http://www.w3.org/1999/xlink" x="0px" y="0px"
	 viewBox="0 0 1366 768" style="enable-background:new 0 0 1366 768;" xml:space="preserve">
<style type="text/css">
	.st0{opacity:0.54;fill:#300047;}
	.st1{fill:#6E2E88;}
	.st2{fill:#E2B681;stroke:#300047;stroke-miterlimit:10;}
	.st3{fill:#FFBB00;}
	.st4{fill:#3F44B2;}
	.st5{fill:#E2B681;stroke:#E2B681;stroke-miterlimit:10;}
	.st6{fill:#E2B681;}
	.st7{fill:none;stroke:#300047;stroke-miterlimit:10;}
	.st8{fill:#402659;}
	.st9{fill:#7A1699;}
	.st10{fill:#FFFFFF;}
	.st11{fill:#CC33FF;}
</style>
<g id="tache">
	<path class="st0" d="M639.96,26.23"/>
	<path class="st1" d="M278.26,413.69c-12.14,75.23,1.39,114.29,14.26,149.04C316.57,627.69,379.83,689.22,453,707
		c98.38,23.9,127.23-52.54,259-51c116.96,1.37,134.55,62.07,225,51c131.38-16.07,211.25-158.44,228.67-189.49
		c80.43-143.37,90.61-353.42-1.87-422.21c-24.57-18.28-58.83-26.89-105.62-21.31c-256.05,30.51-339.09,0.6-477.9-50.35
		c-53.5-19.64-245.83-46.86-304.74,35.33c-3.49,4.87-6.15,9.64-8.1,14.72c-28.57,74.29,5.87,130.69,14.94,229.11
		C284.8,329.11,285.8,366.96,278.26,413.69z"/>
	<path class="st2" d="M518.62,342.19"/>
	<path class="st2" d="M576.04,343.75"/>
	
		<rect x="528.83" y="589.01" transform="matrix(0.7443 0.6679 -0.6679 0.7443 538.9051 -221.2391)" class="st3" width="59.08" height="8.23"/>
	
		<rect x="529" y="589.19" transform="matrix(0.6182 -0.786 0.786 0.6182 -253.1021 665.5255)" class="st3" width="59.08" height="8.23"/>
	<path class="st3" d="M1076.94,163.34c-14.3,10.36-28.61,20.73-42.91,31.09l49.3,22.05C1081.2,198.77,1079.07,181.05,1076.94,163.34
		z M1073.61,171.61c1.51,12.61,3.03,25.22,4.54,37.82l-35.09-15.69C1053.25,186.36,1063.43,178.99,1073.61,171.61z"/>
</g>
<g id="dos_main_gauche">
	<path class="st4" d="M288,218.29"/>
	<path class="st2" d="M550.38,316.14"/>
	<path class="st2" d="M595.56,359.27c0,0-19.47-31.82-51.84-44.66l-20.04-4.63L429.62,549l50.28,37.21l92.51-124.69
		c0,0,32.18-26.15,45.25-58.32c13.07-32.18,16.09-55.31,16.09-55.31"/>
	<path class="st2" d="M585.51,251.65l31.61-92.62c0,0,2.05-12.32-12.32-18.48c-14.38-6.16-26.7,18.48-26.7,18.48l-36.75,90.88
		c0,0,13.53-8.77,24.12-6.69S582.65,247.75,585.51,251.65"/>
	<path class="st2" d="M518.62,342.19l-12.39-0.38l81.12-81.12c4.11-12.32,25.67-60.58,25.67-60.58s7.19-11.3,17.46-7.19
		c10.27,4.11,12.68,1.94,16.43,14.38c4.13,13.69-30.78,92.76-32.86,92.42l-24.41,44.67"/>
	<path class="st2" d="M632.53,355.16l26.7-63.67c0,0,8.21-16.43-4.11-22.59c-12.32-6.16-24.64,14.38-24.64,14.38l-32.26,47.08
		l-12.8,8.78"/>
	<path class="st2" d="M584.5,344.75c0,0-25.9-20.4-38.22-22.45c0,0-6.16-2.05-10.27-2.05"/>
	<rect x="589.4" y="340.79" class="st5" width="4.11" height="4.11"/>
	<path class="st2" d="M463.2,309.37c0,0,43.02-129.81,55.35-144.18c12.32-14.38,18.48-22.59,32.86-18.48
		c14.38,4.11,12.32,22.59,12.32,22.59l-36.2,89.55L463.2,309.37"/>
	<g id="dos_main_droite">
		<path class="st6" d="M629.19,349.26c0.17,0.92,0.26,1.86,0.26,2.82c0,11.34-12.41,20.54-27.73,20.54S574,363.42,574,352.08
			c0-5.05,2.46-9.68,6.54-13.25"/>
		<path class="st7" d="M577.74,339.69c0,0,14.74,10.34,20.91,20.61"/>
	</g>
</g>
<g id="dos_main_droite_00000020389133962265216930000015490999293060791996_">
	<path class="st2" d="M518.61,342.19c-1.62,2.7-3.04,5.32-4.3,7.86c-2.13,4.29-3.78,8.33-5.08,12.04"/>
	<path class="st2" d="M939.86,303.27c0,0-43.02-129.81-55.35-144.18c-12.32-14.38-18.48-22.59-32.86-18.48s-12.32,22.59-12.32,22.59
		l36.2,89.55L939.86,303.27"/>
	<path class="st2" d="M817.55,245.55l-31.61-92.62c0,0-2.05-12.32,12.32-18.48s26.7,18.48,26.7,18.48l36.75,90.88
		c0,0-13.53-8.77-24.12-6.69S820.41,241.64,817.55,245.55"/>
	<path class="st2" d="M884.45,336.09"/>
	<path class="st2" d="M884.45,336.09l12.39-0.38l-81.12-81.12c-4.11-12.32-25.67-60.58-25.67-60.58s-7.19-11.3-17.46-7.19
		c-10.27,4.11-12.68,1.94-16.43,14.38c-4.13,13.69,30.78,92.76,32.86,92.42l24.41,44.67"/>
	<path class="st2" d="M827.02,337.65"/>
	<path class="st2" d="M772.59,349.05l-28.75-63.67c0,0-8.21-16.43,4.11-22.59c12.32-6.16,24.64,14.38,24.64,14.38l32.26,47.08
		l12.8,8.78"/>
	<path class="st2" d="M773.87,343.16c-0.17,0.92-0.26,1.86-0.26,2.82c0,11.34,12.41,20.54,27.73,20.54
		c15.31,0,27.73-9.19,27.73-20.54c0-5.05-2.46-9.68-6.54-13.25"/>
	<path class="st2" d="M852.68,310.03"/>
	<path class="st2" d="M807.5,353.16c0,0,19.47-31.82,51.84-44.66l20.04-4.63l94.06,239.02l-50.28,37.21l-92.51-124.69
		c0,0-32.18-26.15-45.25-58.32s-16.09-55.31-16.09-55.31"/>
	<path class="st2" d="M884.45,336.08c1.62,2.7,3.04,5.32,4.3,7.86c2.13,4.29,3.78,8.33,5.08,12.04"/>
</g>
<g id="manette">
	<path class="st8" d="M910.46,315.59c-14.08-58.32-27.15-154.86-53.3-163.91c-29.36-6.57-53.83-9.05-71.4-10.06
		c-14.97-0.86-26.58-0.74-83.46,0.25c0,0-20.11,1.01-83.46,0c-63.35-1.01-71.4,10.06-71.4,10.06
		c-26.15,9.05-39.22,105.59-53.3,163.91c-3.49,14.46-5.63,34.48,5.95,48.8c7.74,9.58,19.02,13.09,26.23,14.55
		c24.8-0.39,62.46-4.05,104.58-20.74c30.9-12.24,54.68-27.73,71.4-40.6v-0.25c16.72,12.87,40.5,28.36,71.4,40.6
		c42.12,16.69,79.78,20.35,104.58,20.74c7.21-1.46,18.49-4.97,26.23-14.55C916.08,350.06,913.95,330.05,910.46,315.59z"/>
</g>
<g id="bouton">
	<circle class="st9" cx="809.02" cy="208.8" r="16.09"/>
	<circle class="st9" cx="809.77" cy="273.04" r="16.09"/>
	<circle class="st10" cx="776.35" cy="240.8" r="16.09"/>
	<circle class="st10" cx="840.56" cy="243.02" r="16.09"/>
	<circle class="st9" cx="600.74" cy="234.38" r="50.28"/>
	<rect x="678.17" y="249.47" class="st10" width="19.11" height="11.06"/>
	<rect x="708.34" y="249.47" class="st11" width="19.11" height="11.06"/>
</g>
<g id="pouce_droit_et_gauche">
	<path class="st2" d="M969.36,546.04l22.02-16.09c3.02-1.01-66.37-79.44-49.27-105.59c6.32-9.67,14.09-17.7,18.99-28.36
		c5.92-12.89,8.54-27.28,7.49-41.42c-0.29-3.89-0.85-7.76-1.84-11.53c-1.63-6.21-4.42-12.08-7.83-17.52
		c-9.55-15.22-23.74-26.87-37.84-38.01c-11.38-8.98-22.88-17.81-34.49-26.49c-11.15-8.33-21.67-17.15-34.97-21.7
		c-2.83-0.96-9.17-2.87-17.09-2.01c-3.79,0.41-9.45,1.02-14.08,5.03c-6.86,5.93-7.04,15.46-7.04,16.09
		c-0.05,12.37,12.11,21.33,42.23,44.25c12.66,9.62,20.84,19.63,28.83,33.4c7.97,13.74,11.38,26.72,13.01,35.51"/>
	<path class="st2" d="M433.71,552.14l-22.02-16.09c-3.02-1.01,66.37-79.44,49.27-105.59c-6.32-9.67-14.09-17.7-18.99-28.36
		c-5.92-12.89-8.54-27.28-7.49-41.42c0.29-3.89,0.85-7.76,1.84-11.53c1.63-6.21,4.42-12.08,7.83-17.52
		c9.55-15.22,23.74-26.87,37.84-38c11.38-8.98,22.88-17.81,34.49-26.49c11.15-8.33,21.67-17.15,34.98-21.7
		c2.83-0.97,9.17-2.87,17.09-2.01c3.79,0.41,9.45,1.02,14.08,5.03c6.86,5.93,7.04,15.46,7.04,16.09
		c0.05,12.37-12.11,21.33-42.23,44.25c-12.94,9.84-19.75,18.26-23.75,24.46c-2.3,3.56-3.96,6.78-5.08,8.94
		c-6.04,11.7-9.41,22.05-11.36,29.4"/>
	<path class="st3" d="M428.84,81.6c-14.38,0-26.04,11.66-26.04,26.04s11.66,26.04,26.04,26.04s26.04-11.66,26.04-26.04
		S443.22,81.6,428.84,81.6z M429.18,126.83c-10.79,0-19.53-8.74-19.53-19.53s8.74-19.53,19.53-19.53c10.79,0,19.53,8.74,19.53,19.53
		S439.97,126.83,429.18,126.83z"/>
	<path class="st3" d="M1052,489.85l-33.53-19.39l-19.39,33.53l33.53,19.39L1052,489.85z M1020.89,479.51l22.5,13.01l-13.01,22.5
		l-22.5-13.01L1020.89,479.51z"/>
</g>
<g id="fond_blanc">
</g>
</svg>
