<?xml version="1.0" encoding="utf-8"?>
<!-- Generator: Adobe Illustrator 26.0.1, SVG Export Plug-In . SVG Version: 6.00 Build 0)  -->
<svg version="1.1" id="Calque_1" xmlns="http://www.w3.org/2000/svg" xmlns:xlink="http://www.w3.org/1999/xlink" x="0px" y="0px"
	 viewBox="0 0 3840 2160" style="enable-background:new 0 0 3840 2160;" xml:space="preserve">
<style type="text/css">
	.st0{fill:#7A1699;}
	.st1{fill:#F1EEF1;}
	.st2{display:none;}
	.st3{display:inline;fill:none;}
	.st4{display:inline;}
	.st5{fill:#FFFFFF;}
	.st6{font-family:'Poppins-Regular';}
	.st7{font-size:68px;}
	.st8{font-family:'Poppins-Bold';}
	.st9{font-size:80px;}
	.st10{display:inline;fill:none;stroke:#FFFFFF;stroke-width:6;stroke-linecap:round;stroke-miterlimit:10;}
	.st11{display:inline;fill:#FFFFFF;}
	.st12{font-size:60px;}
	.st13{display:inline;fill:none;stroke:#7A1699;stroke-width:6;stroke-linecap:round;stroke-miterlimit:10;}
	.st14{display:inline;fill:#7A1699;}
	.st15{display:inline;fill:#FFFFF8;}
	.st16{font-size:120px;}
	.st17{display:none;fill:#7A1699;}
</style>
<g>
	<rect class="st0" width="3840" height="2160"/>
</g>
<g>
	<circle class="st1" cx="3156.5" cy="781.5" r="1446.5"/>
</g>
<g class="st2">
	<rect x="462.98" y="1214.3" class="st3" width="1232.02" height="326.7"/>
	<text transform="matrix(1 0 0 1 462.9785 1264.6172)" class="st4"><tspan x="0" y="0" class="st5 st6 st7">Nous sommes une association </tspan><tspan x="0" y="82" class="st5 st6 st7">ayant pour but quelque chose, mais </tspan><tspan x="0" y="164" class="st5 st6 st7">ce texte est en réalité un exemple </tspan><tspan x="0" y="246" class="st5 st6 st7">donc peu importe enfaite.</tspan></text>
	<rect x="465.79" y="908.03" class="st3" width="1232.02" height="171.97"/>
	<text transform="matrix(1 0 0 1 465.7892 967.2308)" class="st4"><tspan x="0" y="0" class="st5 st8 st9">Nous sommes une asso </tspan><tspan x="0" y="82" class="st5 st8 st9">ayant pour but ceci</tspan></text>
	<path class="st10" d="M885,1802H538c-39.76,0-72-32.24-72-72v0c0-39.76,32.24-72,72-72h347c39.76,0,72,32.24,72,72v0
		C957,1769.76,924.76,1802,885,1802z"/>
	<rect x="498.02" y="1707.72" class="st3" width="434.98" height="45.28"/>
	<text transform="matrix(1 0 0 1 498.021 1752.123)" class="st11 st8 st12">En Savoir Plus</text>
</g>
<g class="st2">
	<path class="st13" d="M3234,1825h-398c-39.76,0-72-32.24-72-72v0c0-39.76,32.24-72,72-72h398c39.76,0,72,32.24,72,72v0
		C3306,1792.76,3273.76,1825,3234,1825z"/>
	<rect x="2799.15" y="1730.06" class="st3" width="477.85" height="45.28"/>
	<text transform="matrix(1 0 0 1 2799.1523 1774.4589)" class="st14 st8 st12">Nous Rejoindre</text>
</g>
<g class="st2">
	<g class="st4">
		<path class="st0" d="M2543.43,229.23h-16.72l-3.08,8.52h-5.28l13.86-38.12h5.78l13.8,38.12h-5.28L2543.43,229.23z M2542,225.16
			l-6.93-19.36l-6.93,19.36H2542z"/>
		<path class="st0" d="M2557.83,214.47c1.25-2.33,2.98-4.13,5.2-5.42c2.22-1.28,4.76-1.92,7.62-1.92c3.7,0,6.76,0.9,9.16,2.7
			s3.99,4.29,4.76,7.48h-5.39c-0.51-1.83-1.51-3.28-3-4.34c-1.49-1.06-3.33-1.59-5.53-1.59c-2.86,0-5.17,0.98-6.93,2.94
			c-1.76,1.96-2.64,4.74-2.64,8.33c0,3.63,0.88,6.44,2.64,8.42c1.76,1.98,4.07,2.97,6.93,2.97c2.2,0,4.03-0.51,5.5-1.54
			c1.47-1.03,2.47-2.49,3.03-4.4h5.39c-0.81,3.08-2.42,5.55-4.84,7.4s-5.44,2.78-9.07,2.78c-2.86,0-5.4-0.64-7.62-1.92
			c-2.22-1.28-3.95-3.1-5.2-5.45c-1.25-2.35-1.87-5.1-1.87-8.25C2555.96,219.52,2556.59,216.79,2557.83,214.47z"/>
		<path class="st0" d="M2597.32,211.74v17.76c0,1.47,0.31,2.5,0.94,3.11c0.62,0.61,1.71,0.91,3.25,0.91h3.68v4.23h-4.51
			c-2.79,0-4.88-0.64-6.27-1.92c-1.39-1.28-2.09-3.39-2.09-6.33v-17.76h-3.91v-4.12h3.91v-7.59h5v7.59h7.87v4.12H2597.32z"/>
		<path class="st0" d="M2637.97,207.62v30.14h-5v-4.46c-0.95,1.54-2.28,2.74-3.99,3.6c-1.71,0.86-3.58,1.29-5.64,1.29
			c-2.35,0-4.46-0.49-6.33-1.46c-1.87-0.97-3.35-2.43-4.43-4.37c-1.08-1.94-1.62-4.31-1.62-7.09v-17.66h4.95v17
			c0,2.97,0.75,5.25,2.25,6.85c1.5,1.59,3.56,2.39,6.16,2.39c2.68,0,4.79-0.83,6.32-2.48c1.54-1.65,2.31-4.05,2.31-7.21v-16.55
			H2637.97z"/>
		<path class="st0" d="M2646.44,214.47c1.25-2.33,2.96-4.13,5.14-5.42c2.18-1.28,4.61-1.92,7.29-1.92c2.64,0,4.93,0.57,6.88,1.71
			c1.94,1.14,3.39,2.57,4.34,4.29v-5.5h5.06v30.14h-5.06v-5.61c-0.99,1.76-2.47,3.22-4.43,4.37s-4.24,1.73-6.85,1.73
			c-2.68,0-5.1-0.66-7.26-1.98c-2.16-1.32-3.87-3.17-5.12-5.56c-1.25-2.38-1.87-5.1-1.87-8.14
			C2644.57,219.5,2645.19,216.79,2646.44,214.47z M2668.71,216.69c-0.92-1.69-2.15-2.98-3.71-3.88c-1.56-0.9-3.27-1.35-5.14-1.35
			c-1.87,0-3.57,0.44-5.11,1.32s-2.77,2.16-3.68,3.85c-0.92,1.69-1.38,3.67-1.38,5.94c0,2.31,0.46,4.32,1.38,6.02
			c0.92,1.71,2.14,3.01,3.68,3.91s3.25,1.35,5.11,1.35c1.87,0,3.58-0.45,5.14-1.35s2.8-2.2,3.71-3.91s1.38-3.69,1.38-5.97
			C2670.09,220.36,2669.63,218.38,2668.71,216.69z"/>
		<path class="st0" d="M2688.62,197.06v40.7h-5.01v-40.7H2688.62z"/>
		<path class="st0" d="M2697.31,201.73c-0.66-0.66-0.99-1.47-0.99-2.42s0.33-1.76,0.99-2.42c0.66-0.66,1.47-0.99,2.42-0.99
			c0.92,0,1.7,0.33,2.34,0.99c0.64,0.66,0.96,1.47,0.96,2.42s-0.32,1.76-0.96,2.42c-0.64,0.66-1.42,0.99-2.34,0.99
			C2698.78,202.72,2697.97,202.39,2697.31,201.73z M2702.15,207.62v30.14h-5.01v-30.14H2702.15z"/>
		<path class="st0" d="M2716.78,211.74v17.76c0,1.47,0.31,2.5,0.94,3.11c0.62,0.61,1.71,0.91,3.24,0.91h3.69v4.23h-4.51
			c-2.79,0-4.88-0.64-6.27-1.92c-1.39-1.28-2.09-3.39-2.09-6.33v-17.76h-3.91v-4.12h3.91v-7.59h5v7.59h7.87v4.12H2716.78z"/>
		<path class="st0" d="M2758.03,224.56h-24.09c0.18,2.97,1.2,5.29,3.05,6.96c1.85,1.67,4.1,2.5,6.74,2.5c2.16,0,3.97-0.5,5.42-1.51
			c1.45-1.01,2.47-2.36,3.05-4.04h5.39c-0.81,2.9-2.42,5.25-4.84,7.07c-2.42,1.82-5.43,2.72-9.02,2.72c-2.86,0-5.42-0.64-7.67-1.92
			c-2.25-1.28-4.02-3.11-5.31-5.47c-1.29-2.37-1.93-5.11-1.93-8.22c0-3.12,0.62-5.85,1.87-8.19c1.25-2.35,3-4.15,5.25-5.42
			c2.25-1.26,4.85-1.9,7.78-1.9c2.86,0,5.39,0.62,7.59,1.87c2.2,1.25,3.9,2.96,5.09,5.14s1.79,4.65,1.79,7.4
			C2758.2,222.49,2758.14,223.5,2758.03,224.56z M2751.76,215.57c-0.84-1.38-1.99-2.42-3.44-3.13c-1.45-0.71-3.05-1.07-4.81-1.07
			c-2.53,0-4.68,0.81-6.46,2.42c-1.78,1.61-2.8,3.85-3.05,6.71h19.03C2753.03,218.58,2752.61,216.94,2751.76,215.57z M2748.9,199.09
			l-11.71,6.27v-3.74l11.71-6.88V199.09z"/>
		<path class="st0" d="M2769.25,237.07c-1.83-0.79-3.28-1.89-4.34-3.3c-1.06-1.41-1.65-3.03-1.76-4.87h5.17
			c0.15,1.5,0.85,2.73,2.12,3.68c1.27,0.95,2.92,1.43,4.98,1.43c1.91,0,3.41-0.42,4.51-1.26c1.1-0.84,1.65-1.91,1.65-3.19
			c0-1.32-0.59-2.3-1.76-2.94c-1.17-0.64-2.99-1.27-5.44-1.9c-2.24-0.59-4.06-1.18-5.47-1.79c-1.41-0.61-2.62-1.5-3.63-2.7
			c-1.01-1.19-1.51-2.76-1.51-4.7c0-1.54,0.46-2.95,1.38-4.24c0.92-1.28,2.22-2.3,3.91-3.05c1.69-0.75,3.61-1.13,5.78-1.13
			c3.34,0,6.03,0.84,8.08,2.53c2.05,1.69,3.15,4,3.3,6.93h-5.01c-0.11-1.58-0.74-2.84-1.9-3.79c-1.16-0.95-2.71-1.43-4.65-1.43
			c-1.8,0-3.23,0.38-4.29,1.15c-1.06,0.77-1.6,1.78-1.6,3.03c0,0.99,0.32,1.81,0.96,2.45c0.64,0.64,1.45,1.16,2.42,1.54
			c0.97,0.38,2.32,0.82,4.04,1.29c2.16,0.59,3.92,1.16,5.28,1.73c1.36,0.57,2.52,1.42,3.49,2.56s1.48,2.62,1.51,4.46
			c0,1.65-0.46,3.13-1.38,4.45c-0.92,1.32-2.21,2.36-3.88,3.11c-1.67,0.75-3.58,1.13-5.75,1.13
			C2773.16,238.25,2771.09,237.86,2769.25,237.07z"/>
	</g>
	<g class="st4">
		<path class="st0" d="M2981.87,199.35l-11.11,38.33h-5.61l-8.91-30.85l-9.24,30.85l-5.55,0.06l-10.73-38.39h5.34l8.36,32.5
			l9.24-32.5h5.61l8.8,32.4l8.41-32.4H2981.87z"/>
		<path class="st0" d="M3014.71,224.48h-24.09c0.18,2.97,1.2,5.29,3.05,6.96c1.85,1.67,4.1,2.5,6.74,2.5c2.16,0,3.97-0.5,5.42-1.51
			c1.45-1.01,2.47-2.36,3.05-4.04h5.39c-0.81,2.9-2.42,5.25-4.84,7.07s-5.43,2.72-9.02,2.72c-2.86,0-5.42-0.64-7.67-1.93
			c-2.25-1.28-4.02-3.11-5.31-5.47c-1.28-2.37-1.92-5.11-1.92-8.22c0-3.12,0.62-5.85,1.87-8.19c1.25-2.35,3-4.15,5.25-5.42
			c2.26-1.27,4.85-1.9,7.78-1.9c2.86,0,5.39,0.62,7.59,1.87c2.2,1.25,3.89,2.96,5.09,5.14c1.19,2.18,1.79,4.65,1.79,7.4
			C3014.87,222.41,3014.82,223.42,3014.71,224.48z M3008.44,215.49c-0.84-1.38-1.99-2.42-3.44-3.14c-1.45-0.71-3.05-1.07-4.81-1.07
			c-2.53,0-4.68,0.81-6.46,2.42c-1.78,1.61-2.8,3.85-3.05,6.71h19.03C3009.7,218.5,3009.28,216.86,3008.44,215.49z"/>
		<path class="st0" d="M3030.99,208.75c1.98-1.14,4.24-1.7,6.76-1.7c2.71,0,5.15,0.64,7.32,1.92c2.16,1.28,3.87,3.09,5.11,5.42
			c1.25,2.33,1.87,5.03,1.87,8.11c0,3.04-0.62,5.76-1.87,8.14c-1.25,2.38-2.96,4.23-5.14,5.56c-2.18,1.32-4.61,1.98-7.29,1.98
			c-2.6,0-4.89-0.57-6.85-1.71c-1.96-1.14-3.44-2.58-4.43-4.35v5.56h-5v-40.7h5v16.17C3027.5,211.35,3029.01,209.89,3030.99,208.75z
			 M3045.56,216.56c-0.92-1.69-2.15-2.97-3.71-3.85c-1.56-0.88-3.27-1.32-5.14-1.32c-1.83,0-3.53,0.45-5.09,1.35
			c-1.56,0.9-2.8,2.2-3.74,3.9s-1.4,3.68-1.4,5.91c0,2.27,0.47,4.26,1.4,5.97c0.93,1.71,2.18,3.01,3.74,3.91
			c1.56,0.9,3.25,1.35,5.09,1.35c1.87,0,3.58-0.45,5.14-1.35c1.56-0.9,2.8-2.2,3.71-3.91c0.92-1.7,1.38-3.71,1.38-6.02
			C3046.94,220.23,3046.48,218.25,3045.56,216.56z"/>
		<path class="st0" d="M3082.25,199.35v4.07h-10.45v34.27h-5v-34.27h-10.5v-4.07H3082.25z"/>
		<path class="st0" d="M3120.08,199.35l-14.46,38.33h-5.78l-14.46-38.33h5.34l12.04,33.06l12.04-33.06H3120.08z"/>
	</g>
	<g class="st4">
		<path class="st0" d="M3267.71,219.64c1.16,0.92,2.07,2.05,2.75,3.41c0.68,1.36,1.02,2.8,1.02,4.34c0,1.94-0.5,3.69-1.48,5.25
			c-0.99,1.56-2.43,2.79-4.32,3.69c-1.89,0.9-4.12,1.35-6.68,1.35h-14.3v-38.33h13.75c2.6,0,4.82,0.43,6.66,1.29
			c1.83,0.86,3.21,2.03,4.12,3.49c0.92,1.47,1.38,3.12,1.38,4.95c0,2.27-0.61,4.15-1.84,5.64s-2.85,2.56-4.87,3.22
			C3265.28,218.16,3266.55,218.73,3267.71,219.64z M3249.7,215.9h8.41c2.35,0,4.16-0.55,5.45-1.65c1.28-1.1,1.92-2.62,1.92-4.56
			c0-1.94-0.64-3.46-1.92-4.56c-1.28-1.1-3.13-1.65-5.55-1.65h-8.3V215.9z M3264.38,231.8c1.39-1.17,2.09-2.81,2.09-4.9
			c0-2.13-0.73-3.8-2.2-5.03c-1.47-1.23-3.43-1.84-5.88-1.84h-8.69v13.53h8.85C3261.04,233.56,3262.99,232.97,3264.38,231.8z"/>
		<path class="st0" d="M3283.88,236.25c-2.29-1.28-4.09-3.11-5.39-5.47c-1.3-2.37-1.95-5.11-1.95-8.22c0-3.08,0.67-5.8,2.01-8.17
			c1.34-2.37,3.16-4.18,5.47-5.44c2.31-1.27,4.9-1.9,7.76-1.9c2.86,0,5.44,0.63,7.75,1.9c2.31,1.26,4.13,3.07,5.47,5.42
			c1.34,2.35,2.01,5.08,2.01,8.19c0,3.12-0.69,5.86-2.06,8.22c-1.38,2.36-3.24,4.19-5.58,5.47c-2.35,1.28-4.95,1.93-7.81,1.93
			C3288.73,238.18,3286.17,237.54,3283.88,236.25z M3296.61,232.51c1.58-0.84,2.85-2.11,3.82-3.79c0.97-1.69,1.46-3.74,1.46-6.16
			s-0.48-4.47-1.43-6.16c-0.95-1.69-2.2-2.94-3.74-3.77c-1.54-0.82-3.21-1.24-5-1.24c-1.83,0-3.51,0.41-5.03,1.24
			c-1.52,0.83-2.74,2.08-3.66,3.77c-0.92,1.69-1.38,3.74-1.38,6.16c0,2.46,0.45,4.53,1.35,6.21c0.9,1.69,2.1,2.94,3.6,3.77
			c1.5,0.83,3.15,1.24,4.95,1.24S3295.03,233.35,3296.61,232.51z"/>
		<path class="st0" d="M3340.34,207.54v30.14h-5v-4.46c-0.95,1.54-2.28,2.74-3.99,3.6c-1.71,0.86-3.58,1.29-5.64,1.29
			c-2.35,0-4.46-0.49-6.33-1.46c-1.87-0.97-3.35-2.43-4.43-4.37c-1.08-1.94-1.62-4.31-1.62-7.09v-17.66h4.95v17
			c0,2.97,0.75,5.25,2.25,6.85c1.5,1.59,3.56,2.39,6.16,2.39c2.68,0,4.78-0.83,6.33-2.48c1.54-1.65,2.31-4.05,2.31-7.21v-16.56
			H3340.34z"/>
		<path class="st0" d="M3354.91,211.67v17.77c0,1.47,0.31,2.5,0.93,3.11s1.71,0.91,3.25,0.91h3.68v4.23h-4.51
			c-2.79,0-4.88-0.64-6.27-1.92c-1.39-1.28-2.09-3.39-2.09-6.33v-17.77h-3.9v-4.12h3.9v-7.59h5v7.59h7.87v4.12H3354.91z"/>
		<path class="st0" d="M3368.99,201.66c-0.66-0.66-0.99-1.47-0.99-2.42c0-0.95,0.33-1.76,0.99-2.42c0.66-0.66,1.47-0.99,2.42-0.99
			c0.92,0,1.7,0.33,2.34,0.99c0.64,0.66,0.96,1.47,0.96,2.42c0,0.95-0.32,1.76-0.96,2.42c-0.64,0.66-1.42,0.99-2.34,0.99
			C3370.46,202.65,3369.65,202.32,3368.99,201.66z M3373.83,207.54v30.14h-5.01v-30.14H3373.83z"/>
		<path class="st0" d="M3382.36,214.39c1.25-2.33,2.96-4.13,5.14-5.42c2.18-1.28,4.63-1.92,7.34-1.92c2.6,0,4.89,0.58,6.85,1.73
			c1.96,1.15,3.4,2.58,4.32,4.26v-5.5h5.06v44.44h-5.06v-19.85c-0.95,1.69-2.42,3.12-4.4,4.29c-1.98,1.17-4.29,1.76-6.93,1.76
			c-2.64,0-5.04-0.66-7.21-1.98c-2.16-1.32-3.87-3.17-5.12-5.56c-1.25-2.38-1.87-5.1-1.87-8.14
			C3380.49,219.42,3381.11,216.72,3382.36,214.39z M3404.63,216.62c-0.92-1.69-2.15-2.98-3.71-3.88c-1.56-0.9-3.27-1.35-5.14-1.35
			c-1.87,0-3.57,0.44-5.12,1.32c-1.54,0.88-2.77,2.16-3.68,3.85c-0.92,1.69-1.38,3.67-1.38,5.94c0,2.31,0.46,4.32,1.38,6.02
			c0.92,1.71,2.15,3.01,3.68,3.91c1.54,0.9,3.25,1.35,5.12,1.35c1.87,0,3.58-0.45,5.14-1.35c1.56-0.9,2.8-2.2,3.71-3.91
			c0.92-1.7,1.38-3.69,1.38-5.97C3406.01,220.28,3405.55,218.3,3404.63,216.62z"/>
		<path class="st0" d="M3446.27,207.54v30.14h-5.01v-4.46c-0.95,1.54-2.28,2.74-3.99,3.6c-1.71,0.86-3.58,1.29-5.64,1.29
			c-2.35,0-4.46-0.49-6.32-1.46c-1.87-0.97-3.35-2.43-4.43-4.37c-1.08-1.94-1.62-4.31-1.62-7.09v-17.66h4.95v17
			c0,2.97,0.75,5.25,2.25,6.85c1.5,1.59,3.56,2.39,6.16,2.39c2.68,0,4.79-0.83,6.33-2.48s2.31-4.05,2.31-7.21v-16.56H3446.27z"/>
		<path class="st0" d="M3482.07,224.48h-24.09c0.18,2.97,1.2,5.29,3.05,6.96c1.85,1.67,4.1,2.5,6.74,2.5c2.16,0,3.97-0.5,5.42-1.51
			c1.45-1.01,2.47-2.36,3.05-4.04h5.39c-0.81,2.9-2.42,5.25-4.84,7.07s-5.43,2.72-9.02,2.72c-2.86,0-5.42-0.64-7.67-1.93
			c-2.25-1.28-4.02-3.11-5.31-5.47c-1.29-2.37-1.93-5.11-1.93-8.22c0-3.12,0.62-5.85,1.87-8.19c1.25-2.35,3-4.15,5.25-5.42
			c2.25-1.27,4.85-1.9,7.78-1.9c2.86,0,5.39,0.62,7.59,1.87c2.2,1.25,3.9,2.96,5.09,5.14c1.19,2.18,1.79,4.65,1.79,7.4
			C3482.24,222.41,3482.18,223.42,3482.07,224.48z M3475.8,215.49c-0.84-1.38-1.99-2.42-3.44-3.14c-1.45-0.71-3.05-1.07-4.81-1.07
			c-2.53,0-4.68,0.81-6.46,2.42c-1.78,1.61-2.8,3.85-3.05,6.71h19.03C3477.07,218.5,3476.64,216.86,3475.8,215.49z"/>
	</g>
</g>
<g class="st2">
	<circle class="st15" cx="646.5" cy="251.5" r="183.5"/>
	<rect x="919.68" y="132.72" class="st3" width="628.32" height="239.28"/>
	<text transform="matrix(1 0 0 1 919.6806 221.5229)" class="st4"><tspan x="0" y="0" class="st5 st8 st16">GAME</tspan><tspan x="0" y="120" class="st5 st8 st16">SPHERE</tspan></text>
</g>
<ellipse class="st1" cx="3725" cy="2096" rx="259" ry="153"/>
<circle class="st17" cx="3038" cy="1012" r="552"/>
</svg>
